<?xml version="1.0" encoding="UTF-8"?>
<svg version="1.1" xmlns="http://www.w3.org/2000/svg" width="225" height="225">
<path d="M0 0 C74.25 0 148.5 0 225 0 C225 74.25 225 148.5 225 225 C150.75 225 76.5 225 0 225 C0 150.75 0 76.5 0 0 Z " fill="#F8F7F7" transform="translate(0,0)"/>
<path d="M0 0 C0.67740234 -0.00386719 1.35480469 -0.00773437 2.05273438 -0.01171875 C6.49953889 -0.0031918 10.6895079 0.40662059 15.0625 1.125 C14.27875 2.011875 13.495 2.89875 12.6875 3.8125 C11.47320433 5.244967 10.26586823 6.68334103 9.0625 8.125 C8.27746094 9.05957031 7.49242188 9.99414062 6.68359375 10.95703125 C-6.35203713 26.90204193 -11.8198581 44.83093182 -13.9375 65.125 C-19.5475 65.125 -25.1575 65.125 -30.9375 65.125 C-25.87662097 70.97974241 -20.82392394 76.523281 -14.9375 81.5625 C-12.43568452 83.72037475 -10.20042808 85.86672805 -8.125 88.4375 C-6.03869391 91.27069422 -6.03869391 91.27069422 -2.9375 93.125 C-2.9375 93.785 -2.9375 94.445 -2.9375 95.125 C-2.2775 95.125 -1.6175 95.125 -0.9375 95.125 C-0.4425 93.64 -0.4425 93.64 0.0625 92.125 C4.38068182 87.35227273 4.38068182 87.35227273 8.0625 86.125 C8.7530786 84.80389311 9.41782724 83.46910537 10.0625 82.125 C11.54296875 80.703125 11.54296875 80.703125 13.25 79.375 C16.81212723 76.46866188 19.67545426 73.21580646 22.58203125 69.6640625 C23.07058594 69.15617187 23.55914062 68.64828125 24.0625 68.125 C24.7225 68.125 25.3825 68.125 26.0625 68.125 C26.0625 67.465 26.0625 66.805 26.0625 66.125 C20.1225 65.795 14.1825 65.465 8.0625 65.125 C7.24206776 51.587868 11.58603546 40.26826562 19.0625 29.125 C19.86494141 27.92230469 19.86494141 27.92230469 20.68359375 26.6953125 C30.35495219 13.28992837 46.28298283 3.63267493 62.515625 0.5234375 C81.42021745 -1.60020615 100.07559355 1.1177104 115.87988281 12.42529297 C130.24492272 23.91483529 140.38944233 39.73875496 143.0625 58.125 C144.02211856 68.69631757 143.6019716 79.04892358 140.0625 89.125 C139.7221875 90.11757812 139.381875 91.11015625 139.03125 92.1328125 C135.39023472 101.75198126 129.72950793 110.22469286 122.0625 117.125 C121.56105469 117.64191406 121.05960938 118.15882813 120.54296875 118.69140625 C108.7033257 130.22151615 90.98886238 136.16969593 74.75 136.3125 C70.43333087 136.23875927 66.30796857 135.89690338 62.0625 135.125 C63.55693106 131.65634686 65.57175726 129.38982656 68.1875 126.6875 C82.99276686 110.45407235 87.06038563 92.02114609 91.0625 71.125 C99.4775 70.63 99.4775 70.63 108.0625 70.125 C106.4846875 68.7946875 106.4846875 68.7946875 104.875 67.4375 C100.99808602 64.10773114 97.31320531 60.75091691 94.1875 56.6875 C91.9329996 53.96883776 89.51392208 51.85974074 86.80078125 49.6171875 C85.0625 48.125 85.0625 48.125 82.3125 45.25 C80.21480252 42.78168823 80.21480252 42.78168823 77.0625 43.125 C74.97072606 44.94178835 73.04931952 46.76668924 71.1171875 48.7421875 C70.26146652 49.60071823 70.26146652 49.60071823 69.38845825 50.47659302 C68.18302554 51.6887518 66.98119798 52.90450476 65.78271484 54.12353516 C63.94487328 55.99250185 62.09660298 57.85061456 60.24609375 59.70703125 C59.07749962 60.88479648 57.90951016 62.06316205 56.7421875 63.2421875 C56.18804169 63.80058319 55.63389587 64.35897888 55.06295776 64.93429565 C52.2161682 67.76954409 52.2161682 67.76954409 50.0625 71.125 C56.3325 71.125 62.6025 71.125 69.0625 71.125 C68.04496496 90.20378202 60.52962385 106.08474032 46.75390625 119.34765625 C36.97516375 127.68126439 25.62208861 132.69169669 13.0625 135.125 C11.86753906 135.39763672 11.86753906 135.39763672 10.6484375 135.67578125 C-6.11989924 138.58870984 -23.50627736 133.90109816 -37.4296875 124.4296875 C-51.39781404 113.94183491 -61.49666485 100.03422221 -65.43359375 82.82421875 C-68.11201416 63.16170616 -65.60917455 43.65178191 -53.63720703 27.35498047 C-40.25153447 10.80779477 -21.55441054 -0.12235238 0 0 Z " fill="#DA122B" transform="translate(74.9375,42.875)"/>
<path d="M0 0 C0.67740234 -0.00386719 1.35480469 -0.00773437 2.05273438 -0.01171875 C6.49953889 -0.0031918 10.6895079 0.40662059 15.0625 1.125 C14.27875 2.011875 13.495 2.89875 12.6875 3.8125 C11.47320433 5.244967 10.26586823 6.68334103 9.0625 8.125 C8.27746094 9.05957031 7.49242188 9.99414062 6.68359375 10.95703125 C-6.35203713 26.90204193 -11.8198581 44.83093182 -13.9375 65.125 C-19.5475 65.125 -25.1575 65.125 -30.9375 65.125 C-25.87662097 70.97974241 -20.82392394 76.523281 -14.9375 81.5625 C-12.43568452 83.72037475 -10.20042808 85.86672805 -8.125 88.4375 C-6.03869391 91.27069422 -6.03869391 91.27069422 -2.9375 93.125 C-2.9375 93.785 -2.9375 94.445 -2.9375 95.125 C-2.2775 95.125 -1.6175 95.125 -0.9375 95.125 C-0.4425 93.64 -0.4425 93.64 0.0625 92.125 C3.1190036 88.64398201 5.62406561 86.51993652 10.0625 85.125 C10.26746094 85.98738281 10.26746094 85.98738281 10.4765625 86.8671875 C11.04043562 89.03997858 11.68927136 91.13404159 12.4375 93.25 C12.67210938 93.93320313 12.90671875 94.61640625 13.1484375 95.3203125 C14.05348772 97.47406058 14.05348772 97.47406058 17.0625 99.125 C18.25 102.75 18.25 102.75 19.0625 106.125 C19.7225 106.125 20.3825 106.125 21.0625 106.125 C21.0625 107.115 21.0625 108.105 21.0625 109.125 C22.5475 109.62 22.5475 109.62 24.0625 110.125 C25.75 111.4375 25.75 111.4375 27.0625 113.125 C27.0625 114.445 27.0625 115.765 27.0625 117.125 C28.7125 117.785 30.3625 118.445 32.0625 119.125 C32.0625 119.785 32.0625 120.445 32.0625 121.125 C33.7125 121.125 35.3625 121.125 37.0625 121.125 C37.3925 120.465 37.7225 119.805 38.0625 119.125 C39.7125 119.785 41.3625 120.445 43.0625 121.125 C35.60653199 129.43986629 23.71182526 133.06179242 13.0625 135.125 C11.86753906 135.39763672 11.86753906 135.39763672 10.6484375 135.67578125 C-6.11989924 138.58870984 -23.50627736 133.90109816 -37.4296875 124.4296875 C-51.39781404 113.94183491 -61.49666485 100.03422221 -65.43359375 82.82421875 C-68.11201416 63.16170616 -65.60917455 43.65178191 -53.63720703 27.35498047 C-40.25153447 10.80779477 -21.55441054 -0.12235238 0 0 Z " fill="#A61323" transform="translate(74.9375,42.875)"/>
<path d="M0 0 C6.6 0 13.2 0 20 0 C19.03537732 18.08667519 12.32749937 32.7720572 0 46 C-1.63910507 47.36707357 -3.29861943 48.71125654 -5 50 C-5.66 49.01 -6.32 48.02 -7 47 C-6.34 47 -5.68 47 -5 47 C-5 46.34 -5 45.68 -5 45 C-4.34 45 -3.68 45 -3 45 C-2.67 42.69 -2.34 40.38 -2 38 C-0.02 38.33 1.96 38.66 4 39 C4 38.01 4 37.02 4 36 C4.66 36 5.32 36 6 36 C6.103125 35.21625 6.20625 34.4325 6.3125 33.625 C7 31 7 31 10 29 C10.75987096 26.91606628 10.75987096 26.91606628 11.125 24.5625 C11.62072214 21.92299705 12.14694803 19.55915592 13 17 C13.66 17 14.32 17 15 17 C14.505 16.21625 14.01 15.4325 13.5 14.625 C11.50698672 9.80855124 11.78960713 6.18969068 12 1 C6.555 1.495 6.555 1.495 1 2 C0.67 1.34 0.34 0.68 0 0 Z " fill="#BC1830" transform="translate(124,114)"/>
<path d="M0 0 C0.99 0 1.98 0 3 0 C2.67 0.598125 2.34 1.19625 2 1.8125 C0.79212012 4.05386471 0.79212012 4.05386471 1 7 C1.33 7.66 1.66 8.32 2 9 C1.67 9.66 1.34 10.32 1 11 C-0.66321482 11.35015049 -2.33034549 11.68197057 -4 12 C-4.99 12.66 -5.98 13.32 -7 14 C-6.67 14.99 -6.34 15.98 -6 17 C-6.33 17.99 -6.66 18.98 -7 20 C-8.84765625 20.73046875 -8.84765625 20.73046875 -11.0625 21.1875 C-11.79597656 21.34605469 -12.52945313 21.50460938 -13.28515625 21.66796875 C-13.85105469 21.77753906 -14.41695313 21.88710937 -15 22 C-14.74445946 23.46109063 -14.46999628 24.91888096 -14.1875 26.375 C-14.03667969 27.18710938 -13.88585937 27.99921875 -13.73046875 28.8359375 C-13.12455058 31.35820641 -13.12455058 31.35820641 -10 33 C-10.33 33.66 -10.66 34.32 -11 35 C-15.6237181 32.44898312 -16.44580762 28.72695196 -18 24 C-18.66066719 22.33094605 -19.32438252 20.6630584 -20 19 C-18.33333333 17.33333333 -16.66666667 15.66666667 -15 14 C-14.236875 13.21625 -13.47375 12.4325 -12.6875 11.625 C-2.83333333 2 -2.83333333 2 0 2 C0 1.34 0 0.68 0 0 Z " fill="#C91128" transform="translate(103,108)"/>
<path d="M0 0 C4.75 0.75 4.75 0.75 7 3 C7 4.32 7 5.64 7 7 C6.01 7 5.02 7 4 7 C4.33 7.721875 4.66 8.44375 5 9.1875 C6.00603529 12.01697427 6.16977402 14.02895466 6 17 C6.66 17 7.32 17 8 17 C7.7215625 15.7934375 7.7215625 15.7934375 7.4375 14.5625 C7.293125 13.716875 7.14875 12.87125 7 12 C7.33 11.67 7.66 11.34 8 11 C8.23075082 9.65252916 8.41153063 8.29622435 8.5625 6.9375 C8.706875 5.638125 8.85125 4.33875 9 3 C9.66 3 10.32 3 11 3 C10.67 4.65 10.34 6.3 10 8 C10.66 8 11.32 8 12 8 C12 11.63 12 15.26 12 19 C10.35 19 8.7 19 7 19 C7.144375 19.60585937 7.28875 20.21171875 7.4375 20.8359375 C8.75194031 26.76917503 9.99037822 32.92993994 9 39 C7.48046875 41.2890625 7.48046875 41.2890625 6 43 C4.164126 39.87514636 3.79138073 37.74249042 3.9453125 34.140625 C3.97238281 33.19646729 3.99945313 32.25230957 4.02734375 31.27954102 C4.05957031 30.27979248 4.09179688 29.28004395 4.125 28.25 C4.31513739 18.20995359 3.09633794 9.52400374 0 0 Z " fill="#F8EEEE" transform="translate(213,85)"/>
<path d="M0 0 C0.33 0 0.66 0 1 0 C1.6875 3.3125 1.6875 3.3125 2 7 C1.5153125 7.45375 1.030625 7.9075 0.53125 8.375 C-1.27017845 9.95937427 -1.27017845 9.95937427 -1.29296875 12.69921875 C-1.24076172 14.17841797 -1.24076172 14.17841797 -1.1875 15.6875 C-1.16042969 16.68136719 -1.13335937 17.67523438 -1.10546875 18.69921875 C-1.05326172 19.83810547 -1.05326172 19.83810547 -1 21 C-1.99 21 -2.98 21 -4 21 C-4.33 19.68 -4.66 18.36 -5 17 C-7.87420123 19.71604715 -7.87420123 19.71604715 -10 23 C-10.66 23.33 -11.32 23.66 -12 24 C-12.061875 25.11375 -12.12375 26.2275 -12.1875 27.375 C-13 31 -13 31 -14.6171875 32.12890625 C-16.5625 32.9375 -16.5625 32.9375 -20 34 C-20.66 33.01 -21.32 32.02 -22 31 C-22.33 31.66 -22.66 32.32 -23 33 C-23.66 32.34 -24.32 31.68 -25 31 C-24.3709375 30.53851563 -23.741875 30.07703125 -23.09375 29.6015625 C-12.32803532 21.39756908 -5.98034069 11.92330425 0 0 Z " fill="#F8E8EA" transform="translate(139,136)"/>
<path d="M0 0 C0 0.66 0 1.32 0 2 C-0.99 2 -1.98 2 -3 2 C-2.34 5.3 -1.68 8.6 -1 12 C-3.31 11.67 -5.62 11.34 -8 11 C-8.33 11.99 -8.66 12.98 -9 14 C-9.5775 13.814375 -10.155 13.62875 -10.75 13.4375 C-13.20692525 12.95976454 -14.64397534 13.24270636 -17 14 C-17.103125 14.61875 -17.20625 15.2375 -17.3125 15.875 C-18 18 -18 18 -21 20 C-21.99 20 -22.98 20 -24 20 C-25.2827959 22.38233524 -26.18544487 24.59110551 -27 27.1875 C-28 30 -28 30 -30 31 C-30.65555119 33.52733235 -30.65555119 33.52733235 -31 36 C-31.99 36 -32.98 36 -34 36 C-29.59048354 21.22920596 -18.03531472 9.15340343 -4.9375 1.4375 C-2 0 -2 0 0 0 Z " fill="#C5132A" transform="translate(121,50)"/>
<path d="M0 0 C14.85021996 -0.41940998 26.47078753 0.74994534 40.125 6.9375 C40.87281738 7.27330078 41.62063477 7.60910156 42.39111328 7.95507812 C47.59326935 10.43675257 47.59326935 10.43675257 49.4921875 13.06640625 C50 15 50 15 50 18 C48.02 17.67 46.04 17.34 44 17 C44 17.66 44 18.32 44 19 C44.66 19.33 45.32 19.66 46 20 C44.35 19.67 42.7 19.34 41 19 C41.66 18.67 42.32 18.34 43 18 C43 16.35 43 14.7 43 13 C41.68 12.67 40.36 12.34 39 12 C39 11.34 39 10.68 39 10 C37.02 10.99 37.02 10.99 35 12 C35 10.35 35 8.7 35 7 C28.22836398 3.99493299 22.04147672 3.36065432 14.6875 2.9375 C12.54507758 2.80877623 10.40309674 2.67240913 8.26171875 2.52734375 C7.32287842 2.47312256 6.38403809 2.41890137 5.41674805 2.36303711 C3 2 3 2 0 0 Z " fill="#CE1D36" transform="translate(141,43)"/>
<path d="M0 0 C0.66 0.33 1.32 0.66 2 1 C1.85831863 2.43791516 1.71148957 3.8753237 1.5625 5.3125 C1.48128906 6.11300781 1.40007813 6.91351563 1.31640625 7.73828125 C1 10 1 10 0 13 C0.17725375 16.38229102 0.44688 19.73699704 0.77148438 23.10742188 C1.08344858 26.97649513 1.24797757 29.72632924 -1 33 C-1 31.68 -1 30.36 -1 29 C-1.66 29 -2.32 29 -3 29 C-3 33.29 -3 37.58 -3 42 C-5.90618261 37.64072609 -5.34044457 33.69371629 -5.3125 28.5625 C-5.30976074 27.57000244 -5.30702148 26.57750488 -5.30419922 25.55493164 C-5.17309485 16.34371939 -3.48697232 8.50518031 0 0 Z " fill="#971321" transform="translate(14,83)"/>
<path d="M0 0 C0.66 0 1.32 0 2 0 C1.979375 0.94875 1.95875 1.8975 1.9375 2.875 C1.77448174 5.90666283 1.77448174 5.90666283 3 8 C2.34 8 1.68 8 1 8 C0.67 8.66 0.34 9.32 0 10 C-0.66 10 -1.32 10 -2 10 C-4.08937386 11.89943078 -5.73220443 13.46440887 -7 16 C-8 17 -8 17 -9.9375 17.3125 C-12.14621046 17.80457018 -12.14621046 17.80457018 -13.125 19.8125 C-13.41375 20.534375 -13.7025 21.25625 -14 22 C-14.875 24.1875 -14.875 24.1875 -16 26 C-18.125 26.75 -18.125 26.75 -20 27 C-20 28.65 -20 30.3 -20 32 C-20.99 32 -21.98 32 -23 32 C-21.65865356 27.05192202 -19.41279851 23.4555428 -16.25 19.5 C-15.58218506 18.6478894 -15.58218506 18.6478894 -14.90087891 17.77856445 C-11.83398219 13.91351815 -8.63372705 10.34685386 -5 7 C-7.97 6.505 -7.97 6.505 -11 6 C-11 5.67 -11 5.34 -11 5 C-10.195625 4.87625 -9.39125 4.7525 -8.5625 4.625 C-7.716875 4.41875 -6.87125 4.2125 -6 4 C-5.67 3.34 -5.34 2.68 -5 2 C-3.35 2 -1.7 2 0 2 C0 1.34 0 0.68 0 0 Z " fill="#F3EAEB" transform="translate(94,38)"/>
<path d="M0 0 C2.77141717 -0.08089542 5.54047819 -0.14044062 8.3125 -0.1875 C9.09818359 -0.21263672 9.88386719 -0.23777344 10.69335938 -0.26367188 C11.45068359 -0.27333984 12.20800781 -0.28300781 12.98828125 -0.29296875 C14.03302612 -0.31653442 14.03302612 -0.31653442 15.09887695 -0.34057617 C17.54489783 0.09761557 18.42702086 1.13437358 20 3 C16.82994658 4.58502671 13.50875122 4.60385067 10 5 C10.99 6.485 10.99 6.485 12 8 C12 9.32 12 10.64 12 12 C12.66 12 13.32 12 14 12 C14.33 11.34 14.66 10.68 15 10 C15.66 10.66 16.32 11.32 17 12 C17.99 12.33 18.98 12.66 20 13 C19.34 14.98 18.68 16.96 18 19 C16.86800647 18.0919838 15.74467637 17.17316174 14.625 16.25 C13.99851562 15.73953125 13.37203125 15.2290625 12.7265625 14.703125 C10.91171737 12.91291578 10.08902351 11.27879369 9 9 C7.67592331 8.31513275 6.34090759 7.65129797 5 7 C2.25 4.5 2.25 4.5 0 2 C0 1.34 0 0.68 0 0 Z " fill="#F4E8E7" transform="translate(44,108)"/>
<path d="M0 0 C0.99 0.33 1.98 0.66 3 1 C2.67 1.66 2.34 2.32 2 3 C3.65 3 5.3 3 7 3 C5.38405168 5.04119788 3.7143618 7.04072937 2 9 C1.34 9 0.68 9 0 9 C-0.268125 9.57492188 -0.53625 10.14984375 -0.8125 10.7421875 C-2.03264864 13.06207538 -3.4145552 15.04014008 -5 17.125 C-5.515625 17.80820313 -6.03125 18.49140625 -6.5625 19.1953125 C-8 21 -8 21 -10 23 C-10.12375 22.360625 -10.2475 21.72125 -10.375 21.0625 C-10.58125 20.381875 -10.7875 19.70125 -11 19 C-11.66 18.67 -12.32 18.34 -13 18 C-12.34 18 -11.68 18 -11 18 C-10.67 15.69 -10.34 13.38 -10 11 C-8.68 10.67 -7.36 10.34 -6 10 C-5.67 8.35 -5.34 6.7 -5 5 C-4.34 5 -3.68 5 -3 5 C-3 4.34 -3 3.68 -3 3 C-1.5 1.375 -1.5 1.375 0 0 Z " fill="#F3F4F3" transform="translate(101,54)"/>
<path d="M0 0 C0.99 0 1.98 0 3 0 C3 0.66 3 1.32 3 2 C5.97 2.495 5.97 2.495 9 3 C4.77883845 8.03043332 0.39019121 12.79239333 -4.25 17.4375 C-5.18585938 18.39172852 -5.18585938 18.39172852 -6.140625 19.36523438 C-7.0378125 20.26532227 -7.0378125 20.26532227 -7.953125 21.18359375 C-8.49098633 21.72556396 -9.02884766 22.26753418 -9.58300781 22.82592773 C-11 24 -11 24 -13 24 C-12.34 22.68 -11.68 21.36 -11 20 C-10.34 20 -9.68 20 -9 20 C-8.67 17.69 -8.34 15.38 -8 13 C-8.33 13 -8.66 13 -9 13 C-9 11.35 -9 9.7 -9 8 C-7.02 8.66 -5.04 9.32 -3 10 C-2.67 9.34 -2.34 8.68 -2 8 C-1.01 8 -0.02 8 1 8 C0.34 5.69 -0.32 3.38 -1 1 C-0.67 0.67 -0.34 0.34 0 0 Z " fill="#C81127" transform="translate(137,88)"/>
<path d="M0 0 C6.27 0 12.54 0 19 0 C17.93012423 3.20962732 17.41610306 3.69905837 14.875 5.6875 C10.76779026 9.06340532 7.40014247 12.92809686 4 17 C3.34 16.01 2.68 15.02 2 14 C2.66 14 3.32 14 4 14 C4 13.34 4 12.68 4 12 C4.99 12 5.98 12 7 12 C7.33 10.68 7.66 9.36 8 8 C6.68 7.34 5.36 6.68 4 6 C4 4.68 4 3.36 4 2 C2.68 1.34 1.36 0.68 0 0 Z " fill="#FDF0F4" transform="translate(83,108)"/>
<path d="M0 0 C0.33 0 0.66 0 1 0 C1.24900646 1.93505023 1.47356242 3.87325934 1.6875 5.8125 C1.81511719 6.89144531 1.94273437 7.97039062 2.07421875 9.08203125 C2 12 2 12 0.51953125 13.88671875 C0.01808594 14.25410156 -0.48335937 14.62148437 -1 15 C-1.66 14.67 -2.32 14.34 -3 14 C-3 14.928125 -3 15.85625 -3 16.8125 C-3 24.96774194 -3 24.96774194 -5.9375 28 C-6.618125 28.66 -7.29875 29.32 -8 30 C-8.66 30.99 -9.32 31.98 -10 33 C-11.32 32.01 -12.64 31.02 -14 30 C-13.56429687 29.44054687 -13.12859375 28.88109375 -12.6796875 28.3046875 C-6.44192129 19.90665593 -1.36691401 10.49027033 0 0 Z " fill="#FAE0E4" transform="translate(216,124)"/>
<path d="M0 0 C0.99 0.33 1.98 0.66 3 1 C-0.49890657 12.38826802 -7.34220197 21.93250638 -16 30 C-16.99 30.33 -17.98 30.66 -19 31 C-19.33 30.01 -19.66 29.02 -20 28 C-19.34 28 -18.68 28 -18 28 C-18 27.34 -18 26.68 -18 26 C-17.34 26 -16.68 26 -16 26 C-15.67 23.69 -15.34 21.38 -15 19 C-13.02 19.33 -11.04 19.66 -9 20 C-9 19.01 -9 18.02 -9 17 C-8.34 17 -7.68 17 -7 17 C-6.896875 16.21625 -6.79375 15.4325 -6.6875 14.625 C-6 12 -6 12 -3 10 C-1.98675674 7.59027402 -1.98675674 7.59027402 -1.3125 4.875 C-1.06113281 3.96492187 -0.80976563 3.05484375 -0.55078125 2.1171875 C-0.36902344 1.41851562 -0.18726563 0.71984375 0 0 Z " fill="#B82034" transform="translate(137,133)"/>
<path d="M0 0 C0.66 0.99 1.32 1.98 2 3 C1.38290413 5.01584651 0.71706982 7.01751285 0 9 C0.33 9.66 0.66 10.32 1 11 C0.67 11.99 0.34 12.98 0 14 C-0.66 14 -1.32 14 -2 14 C-1.67 15.32 -1.34 16.64 -1 18 C-1.99 17.67 -2.98 17.34 -4 17 C-6.46254726 23.61809577 -6.18935472 30.00439516 -6 37 C-7.485 37.495 -7.485 37.495 -9 38 C-8.96368941 24.67401188 -6.44276503 11.82729813 0 0 Z " fill="#F6DFE1" transform="translate(70,70)"/>
<path d="M0 0 C-1.65 0.66 -3.3 1.32 -5 2 C-5 2.66 -5 3.32 -5 4 C-6.5778125 4.2165625 -6.5778125 4.2165625 -8.1875 4.4375 C-11.15460549 4.87526966 -14.06794366 5.37804866 -17 6 C-17 5.34 -17 4.68 -17 4 C-17.99 4.495 -17.99 4.495 -19 5 C-26.03448187 5.41522983 -33.01932526 4.84797784 -40 4 C-39.34 3.67 -38.68 3.34 -38 3 C-38 2.34 -38 1.68 -38 1 C-36.48599609 1.23976562 -36.48599609 1.23976562 -34.94140625 1.484375 C-24.4005556 2.86335645 -14.9572419 2.15862082 -4.73046875 -0.44140625 C-2 -1 -2 -1 0 0 Z " fill="#FCECEE" transform="translate(99,176)"/>
<path d="M0 0 C1.32 0.33 2.64 0.66 4 1 C4.02757191 2.66656881 4.04664803 4.33327851 4.0625 6 C4.07410156 6.928125 4.08570312 7.85625 4.09765625 8.8125 C3.98291006 12.55781567 3.46476721 16.28186235 3 20 C-3.6 20.33 -10.2 20.66 -17 21 C-16.505 19.515 -16.505 19.515 -16 18 C-14.35 18.33 -12.7 18.66 -11 19 C-11 18.34 -11 17.68 -11 17 C-10.30132812 17.03480469 -9.60265625 17.06960937 -8.8828125 17.10546875 C-7.97273438 17.13253906 -7.06265625 17.15960938 -6.125 17.1875 C-5.22007813 17.22230469 -4.31515625 17.25710937 -3.3828125 17.29296875 C-2.59648438 17.19628906 -1.81015625 17.09960938 -1 17 C1.12508244 13.81237635 1.5020163 11.73487777 2 8 C1.34 8 0.68 8 0 8 C-0.33 6.68 -0.66 5.36 -1 4 C-0.34 4 0.32 4 1 4 C0.67 2.68 0.34 1.36 0 0 Z " fill="#972232" transform="translate(58,88)"/>
<path d="M0 0 C0.33 0.99 0.66 1.98 1 3 C-0.32 4.32 -1.64 5.64 -3 7 C-2.5748108 9.02965198 -2.5748108 9.02965198 -1 11 C1.65177645 11.98494554 4.20547307 12.45912382 7 13 C7 13.33 7 13.66 7 14 C0.73 14 -5.54 14 -12 14 C-9.99006295 9.98012591 -8.06153611 7.85483005 -4.875 4.75 C-3.96492187 3.85796875 -3.05484375 2.9659375 -2.1171875 2.046875 C-1.41851562 1.37140625 -0.71984375 0.6959375 0 0 Z " fill="#FBECEC" transform="translate(137,100)"/>
<path d="M0 0 C6.94223623 6.32748097 11.49657797 16.75395453 13 26 C12.94410305 29.12557096 12.54884244 31.90652444 12 35 C11.67 35 11.34 35 11 35 C10.92652344 33.95199219 10.92652344 33.95199219 10.8515625 32.8828125 C10.77679688 31.97273438 10.70203125 31.06265625 10.625 30.125 C10.55539063 29.22007813 10.48578125 28.31515625 10.4140625 27.3828125 C10.20431868 24.82058097 10.20431868 24.82058097 8 23 C7.59952556 20.67724823 7.2602896 18.34260643 7 16 C6.67 16 6.34 16 6 16 C5.938125 15.236875 5.87625 14.47375 5.8125 13.6875 C4.74119692 10.14395904 3.15404673 9.7347257 0 8 C-1.09658936 4.71023192 -0.79953138 3.28696233 0 0 Z " fill="#CE213C" transform="translate(204,70)"/>
<path d="M0 0 C0 0.66 0 1.32 0 2 C-2.31 2.66 -4.62 3.32 -7 4 C-7.33 5.65 -7.66 7.3 -8 9 C-9.32 9.33 -10.64 9.66 -12 10 C-12 9.67 -12 9.34 -12 9 C-17.3533994 9.41987446 -19.99841547 10.45573942 -24 14 C-24.66 14 -25.32 14 -26 14 C-26.33 14.99 -26.66 15.98 -27 17 C-27.66 17 -28.32 17 -29 17 C-29.33 17.66 -29.66 18.32 -30 19 C-30 18.01 -30 17.02 -30 16 C-22.73920216 8.73920216 -10.75555345 0 0 0 Z " fill="#8F2031" transform="translate(60,45)"/>
<path d="M0 0 C0.33 1.32 0.66 2.64 1 4 C-0.98 4.99 -0.98 4.99 -3 6 C-2.67 6.66 -2.34 7.32 -2 8 C-2.66 8 -3.32 8 -4 8 C-4 8.66 -4 9.32 -4 10 C-4.66 10 -5.32 10 -6 10 C-6.33 10.99 -6.66 11.98 -7 13 C-8.62332967 14.38576923 -10.28724465 15.72641268 -12 17 C-13.32 16.34 -14.64 15.68 -16 15 C-16 15.66 -16 16.32 -16 17 C-17.32 17 -18.64 17 -20 17 C-20.33 17.66 -20.66 18.32 -21 19 C-21.66 18.34 -22.32 17.68 -23 17 C-22.29875 16.64808594 -21.5975 16.29617187 -20.875 15.93359375 C-15.10627638 12.93166285 -10.25512386 9.83132479 -5.55859375 5.3203125 C-4 4 -4 4 -2 4 C-1.34 2.68 -0.68 1.36 0 0 Z " fill="#F6D6D9" transform="translate(201,155)"/>
<path d="M0 0 C0.99 0 1.98 0 3 0 C1.67108172 3.58807936 -0.52446195 5.43137038 -3.484375 7.7734375 C-5.15956153 9.08530534 -5.15956153 9.08530534 -7.125 11.125 C-9 13 -9 13 -11.125 14.5 C-13.19643807 16.15715045 -13.99550126 17.57246138 -15 20 C-16.65 20 -18.3 20 -20 20 C-14.55194378 13.50352058 -8.87425148 7.03880902 -2 2 C-1.34 2 -0.68 2 0 2 C0 1.34 0 0.68 0 0 Z " fill="#B72C3F" transform="translate(103,108)"/>
<path d="M0 0 C0 3.79330832 -1.17710681 5.01684801 -3.375 8.0625 C-4.31472656 9.37927734 -4.31472656 9.37927734 -5.2734375 10.72265625 C-7 13 -7 13 -9 15 C-9 15.33 -9 15.66 -9 16 C-2.4 16.33 4.2 16.66 11 17 C11 17.33 11 17.66 11 18 C2.85333864 19.81036919 -5.82280536 19.48676266 -14 18 C-12.44904419 14.37830859 -10.23134948 11.87481981 -7.5625 9 C-4.87341115 6.09383478 -2.31438774 3.21484084 0 0 Z " fill="#C53F53" transform="translate(151,160)"/>
<path d="M0 0 C0.66 0 1.32 0 2 0 C2 0.99 2 1.98 2 3 C2.99 3.33 3.98 3.66 5 4 C5 4.99 5 5.98 5 7 C5.66 7 6.32 7 7 7 C7 7.99 7 8.98 7 10 C5.04196493 10.05389087 3.08351091 10.09274217 1.125 10.125 C0.03445312 10.14820313 -1.05609375 10.17140625 -2.1796875 10.1953125 C-5 10 -5 10 -7 8 C-6.21625 7.236875 -5.4325 6.47375 -4.625 5.6875 C-1.92742283 3.09108195 -1.92742283 3.09108195 0 0 Z " fill="#E51131" transform="translate(147,167)"/>
<path d="M0 0 C0.33 0.66 0.66 1.32 1 2 C0.34 2 -0.32 2 -1 2 C-1 2.66 -1 3.32 -1 4 C-2.53198504 5.2386262 -4.0650431 6.47602129 -5.609375 7.69921875 C-7.35818117 9.33504025 -7.60004531 10.68026278 -8 13 C-11 15 -11 15 -14 15 C-15.2827959 17.38233524 -16.18544487 19.59110551 -17 22.1875 C-18 25 -18 25 -20 26 C-20.65555119 28.52733235 -20.65555119 28.52733235 -21 31 C-21.99 31 -22.98 31 -24 31 C-20.02549429 17.68638481 -10.76447794 8.23534817 0 0 Z " fill="#B2283E" transform="translate(111,55)"/>
<path d="M0 0 C0.66 0.33 1.32 0.66 2 1 C-3.64610446 4.09831583 -8.52028746 5.8273001 -14.875 6.75 C-15.66293945 6.87141357 -16.45087891 6.99282715 -17.26269531 7.11791992 C-25.16192394 8.2741626 -32.45352204 9.17746441 -40 6 C-39.67 5.01 -39.34 4.02 -39 3 C-39 3.66 -39 4.32 -39 5 C-25.24472902 5.25899046 -12.97125787 5.04437806 0 0 Z " fill="#FCDCDD" transform="translate(176,173)"/>
<path d="M0 0 C0.33 0 0.66 0 1 0 C1.38971999 2.10149011 1.76131477 4.2063482 2.125 6.3125 C2.33382812 7.48425781 2.54265625 8.65601562 2.7578125 9.86328125 C3 13 3 13 1 16 C0.67 15.34 0.34 14.68 0 14 C-0.66 15.65 -1.32 17.3 -2 19 C3.61 19 9.22 19 15 19 C15 19.33 15 19.66 15 20 C9.06 20 3.12 20 -3 20 C-3.31446193 12.66255492 -2.46972941 6.90936204 0 0 Z " fill="#B01F34" transform="translate(86,88)"/>
<path d="M0 0 C0.33 0.99 0.66 1.98 1 3 C1.66 3.33 2.32 3.66 3 4 C0.77208002 5.12752649 -1.45725887 6.25208139 -3.6875 7.375 C-4.31333984 7.69210938 -4.93917969 8.00921875 -5.58398438 8.3359375 C-14.86352539 13 -14.86352539 13 -19 13 C-19 12.34 -19 11.68 -19 11 C-16.03 9.68 -13.06 8.36 -10 7 C-10 6.34 -10 5.68 -10 5 C-8.906875 4.731875 -7.81375 4.46375 -6.6875 4.1875 C-3.38307337 3.12336261 -2.05039578 2.65345336 0 0 Z " fill="#CD1E3A" transform="translate(184,164)"/>
<path d="M0 0 C0.67740234 -0.00386719 1.35480469 -0.00773437 2.05273438 -0.01171875 C6.49953889 -0.0031918 10.6895079 0.40662059 15.0625 1.125 C13.0825 3.435 11.1025 5.745 9.0625 8.125 C8.7325 7.135 8.4025 6.145 8.0625 5.125 C8.7225 5.125 9.3825 5.125 10.0625 5.125 C10.0625 4.465 10.0625 3.805 10.0625 3.125 C9.07854248 3.14071045 9.07854248 3.14071045 8.07470703 3.15673828 C5.11234342 3.19822503 2.15004084 3.22430262 -0.8125 3.25 C-1.84503906 3.26675781 -2.87757812 3.28351562 -3.94140625 3.30078125 C-4.92753906 3.30722656 -5.91367188 3.31367187 -6.9296875 3.3203125 C-8.29649658 3.33602295 -8.29649658 3.33602295 -9.69091797 3.35205078 C-11.9375 3.125 -11.9375 3.125 -13.9375 1.125 C-9.26790986 0.20710865 -4.74345984 -0.02692598 0 0 Z " fill="#972D3F" transform="translate(74.9375,42.875)"/>
<path d="M0 0 C0.33 0 0.66 0 1 0 C1.45195835 16.0026733 -0.38023671 28.24289923 -7 43 C-7.33 43 -7.66 43 -8 43 C-8 41.02 -8 39.04 -8 37 C-7.34 37 -6.68 37 -6 37 C-5.34 33.7 -4.68 30.4 -4 27 C-3.34 27 -2.68 27 -2 27 C-2 24.03 -2 21.06 -2 18 C-1.34 18 -0.68 18 0 18 C0 12.06 0 6.12 0 0 Z " fill="#C62E46" transform="translate(217,101)"/>
<path d="M0 0 C2.125 2.0625 2.125 2.0625 4 5 C3.25 8.8125 3.25 8.8125 2 12 C1.01 12 0.02 12 -1 12 C-2.02019573 12.9793879 -3.02149805 13.97895449 -4 15 C-4.66 15 -5.32 15 -6 15 C-6 13.35 -6 11.7 -6 10 C-5.01 10 -4.02 10 -3 10 C-3 8.35 -3 6.7 -3 5 C-2.01 4.67 -1.02 4.34 0 4 C0 2.68 0 1.36 0 0 Z " fill="#C61029" transform="translate(93,76)"/>
<path d="M0 0 C-2.93108443 2.3815061 -5.90631715 4.6859304 -8.9375 6.9375 C-12.39436905 9.51539286 -15.71466968 12.20746923 -19 15 C-19.33 14.34 -19.66 13.68 -20 13 C-19.04882866 11.8274869 -18.08882991 10.66212985 -17.125 9.5 C-16.59132813 8.8503125 -16.05765625 8.200625 -15.5078125 7.53125 C-15.01023437 7.0259375 -14.51265625 6.520625 -14 6 C-13.34 6 -12.68 6 -12 6 C-12 5.34 -12 4.68 -12 4 C-10.68 4 -9.36 4 -8 4 C-8 3.01 -8 2.02 -8 1 C-5.29120665 -0.35439668 -2.99066732 -0.06501451 0 0 Z " fill="#F5DEE0" transform="translate(44,51)"/>
<path d="M0 0 C0.33 0 0.66 0 1 0 C1.07347656 1.80984375 1.07347656 1.80984375 1.1484375 3.65625 C1.22353532 5.27085306 1.29908003 6.88543539 1.375 8.5 C1.4059375 9.29148437 1.436875 10.08296875 1.46875 10.8984375 C1.66396504 14.86780999 2.04230287 18.50549158 3.1015625 22.34375 C3.95369023 25.81153937 4.0047625 26.79958003 3 30 C3 29.01 3 28.02 3 27 C2.01 27 1.02 27 0 27 C0 24.36 0 21.72 0 19 C-0.66 19 -1.32 19 -2 19 C-1.34 12.73 -0.68 6.46 0 0 Z " fill="#EFCDCF" transform="translate(8,104)"/>
<path d="M0 0 C0.598125 0.185625 1.19625 0.37125 1.8125 0.5625 C4.16408762 1.22093687 4.16408762 1.22093687 7 0 C6.54803755 1.60597325 6.08817673 3.20972508 5.625 4.8125 C5.36976562 5.70582031 5.11453125 6.59914063 4.8515625 7.51953125 C4 10 4 10 2 13 C1.01 12.01 0.02 11.02 -1 10 C-0.67 9.01 -0.34 8.02 0 7 C0.03954234 4.66700175 0.04401732 2.33291811 0 0 Z " fill="#F3F1F2" transform="translate(82,80)"/>
<path d="M0 0 C0.66 0.66 1.32 1.32 2 2 C0.89789095 3.75129657 -0.20677432 5.50098464 -1.3125 7.25 C-2.23482422 8.71179688 -2.23482422 8.71179688 -3.17578125 10.203125 C-4.70475759 12.54733713 -6.28820977 14.78784032 -8 17 C-8 13.05392452 -7.22854066 10.68562197 -6 7 C-6 5.68 -6 4.36 -6 3 C-4.02 2.01 -2.04 1.02 0 0 Z " fill="#F4EDEC" transform="translate(22,66)"/>
<path d="M0 0 C2.97 0.99 5.94 1.98 9 3 C5.51827137 7.23862616 1.09201006 9.23702046 -4 11 C-4.99 11 -5.98 11 -7 11 C-7 9 -7 9 -5 7 C-2.8359375 6.5859375 -2.8359375 6.5859375 -0.375 6.375 C0.44226563 6.30023438 1.25953125 6.22546875 2.1015625 6.1484375 C2.72804688 6.09945312 3.35453125 6.05046875 4 6 C4 5.34 4 4.68 4 4 C2.35 4 0.7 4 -1 4 C-0.67 2.68 -0.34 1.36 0 0 Z " fill="#9E1727" transform="translate(104,164)"/>
<path d="M0 0 C0.66 0 1.32 0 2 0 C1.4533512 8.18088206 -0.17123868 16.01785939 -2 24 C-2.33 24 -2.66 24 -3 24 C-3 20.7 -3 17.4 -3 14 C-3.66 13.67 -4.32 13.34 -5 13 C-4.29423828 12.41798828 -4.29423828 12.41798828 -3.57421875 11.82421875 C-1.59007113 9.52497076 -1.31466837 7.78688189 -0.8125 4.8125 C-0.65394531 3.91144531 -0.49539062 3.01039062 -0.33203125 2.08203125 C-0.22246094 1.39496094 -0.11289063 0.70789063 0 0 Z " fill="#FBE5E6" transform="translate(164,114)"/>
<path d="M0 0 C1.27230469 0.00902344 2.54460937 0.01804687 3.85546875 0.02734375 C5.31919922 0.04474609 5.31919922 0.04474609 6.8125 0.0625 C6.8125 1.0525 6.8125 2.0425 6.8125 3.0625 C1.8625 3.3925 -3.0875 3.7225 -8.1875 4.0625 C-8.8475 5.7125 -9.5075 7.3625 -10.1875 9.0625 C-10.5175 9.0625 -10.8475 9.0625 -11.1875 9.0625 C-11.3125 3.3125 -11.3125 3.3125 -10.1875 1.0625 C-6.62704823 -0.12431726 -3.74941663 -0.03439832 0 0 Z " fill="#E41132" transform="translate(178.1875,114.9375)"/>
<path d="M0 0 C0.66 0.33 1.32 0.66 2 1 C1.9278125 1.62648438 1.855625 2.25296875 1.78125 2.8984375 C1.6884375 3.71570313 1.595625 4.53296875 1.5 5.375 C1.4071875 6.18710938 1.314375 6.99921875 1.21875 7.8359375 C0.96647649 9.96912825 0.96647649 9.96912825 1 12 C0.01 12.495 0.01 12.495 -1 13 C-1.72693904 14.97888961 -2.39816251 16.97954558 -3 19 C-3.66 19 -4.32 19 -5 19 C-4.05542371 12.23238872 -3.06997835 6.1399567 0 0 Z " fill="#A12435" transform="translate(14,83)"/>
<path d="M0 0 C1.65 0 3.3 0 5 0 C4.37954537 4.23322844 2.89476441 7.52290295 0.9375 11.3125 C0.38964844 12.38113281 -0.15820312 13.44976562 -0.72265625 14.55078125 C-1.14417969 15.35902344 -1.56570312 16.16726562 -2 17 C-2.66 16.34 -3.32 15.68 -4 15 C-3.34 13.68 -2.68 12.36 -2 11 C-1.34 11 -0.68 11 0 11 C0 7.37 0 3.74 0 0 Z " fill="#FBD9DB" transform="translate(156,139)"/>
<path d="M0 0 C4.29 0.66 8.58 1.32 13 2 C13 2.33 13 2.66 13 3 C7.39 4.32 1.78 5.64 -4 7 C-4.66 5.68 -5.32 4.36 -6 3 C-4.02 3 -2.04 3 0 3 C0 2.01 0 1.02 0 0 Z " fill="#FAD7E0" transform="translate(128,41)"/>
<path d="M0 0 C0.66 0 1.32 0 2 0 C2 2.31 2 4.62 2 7 C1.01 7.33 0.02 7.66 -1 8 C-2.21869929 10.50447516 -2.21869929 10.50447516 -3 13 C-3.66 13 -4.32 13 -5 13 C-4.48474397 7.71862571 -2.74522883 4.42778844 0 0 Z " fill="#E71032" transform="translate(158,150)"/>
<path d="M0 0 C1.32 0.66 2.64 1.32 4 2 C3.67 3.32 3.34 4.64 3 6 C3.66 6.33 4.32 6.66 5 7 C2 7 2 7 -1 5 C-3.31 6.98 -5.62 8.96 -8 11 C-7.67 9.35 -7.34 7.7 -7 6 C-5.68 5.67 -4.36 5.34 -3 5 C-3 4.34 -3 3.68 -3 3 C-2.34 3 -1.68 3 -1 3 C-0.67 2.01 -0.34 1.02 0 0 Z " fill="#DD2340" transform="translate(154,80)"/>
<path d="M0 0 C0.33 0.99 0.66 1.98 1 3 C0.04422943 4.36538653 -0.96352976 5.69481525 -2 7 C-2.309375 7.886875 -2.61875 8.77375 -2.9375 9.6875 C-4 12 -4 12 -6.125 12.8125 C-6.74375 12.874375 -7.3625 12.93625 -8 13 C-8 14.65 -8 16.3 -8 18 C-8.99 18 -9.98 18 -11 18 C-9.66629344 13.11951338 -7.47529792 9.54881455 -4.375 5.625 C-3.74464844 4.80708984 -3.74464844 4.80708984 -3.1015625 3.97265625 C-2.07499307 2.64278222 -1.03850813 1.32057207 0 0 Z " fill="#F5D5DB" transform="translate(82,52)"/>
<path d="M0 0 C1.33617352 0.97528737 2.6688751 1.95533319 4 2.9375 C5.11375 3.75541016 5.11375 3.75541016 6.25 4.58984375 C6.8275 5.05519531 7.405 5.52054687 8 6 C8 6.33 8 6.66 8 7 C2.06 7 -3.88 7 -10 7 C-10 6.67 -10 6.34 -10 6 C-4.555 5.01 -4.555 5.01 1 4 C0.67 2.68 0.34 1.36 0 0 Z " fill="#FDD1D2" transform="translate(176,107)"/>
<path d="M0 0 C0 0.66 0 1.32 0 2 C-0.99 2 -1.98 2 -3 2 C-2.67 4.31 -2.34 6.62 -2 9 C-4.31 8.67 -6.62 8.34 -9 8 C-8.875 5.6875 -8.875 5.6875 -8 3 C-3.13793103 0 -3.13793103 0 0 0 Z " fill="#D0102A" transform="translate(121,50)"/>
<path d="M0 0 C1.32 0 2.64 0 4 0 C5.20628008 2.33214148 6.1654738 4.49642139 7 7 C8.65 7.33 10.3 7.66 12 8 C11.67 8.99 11.34 9.98 11 11 C10.01 11.33 9.02 11.66 8 12 C6.66382103 10.18959679 5.33112616 8.3766216 4 6.5625 C3.2575 5.55316406 2.515 4.54382813 1.75 3.50390625 C0 1 0 1 0 0 Z " fill="#9F1D32" transform="translate(17,144)"/>
<path d="M0 0 C2.375 0.3125 2.375 0.3125 5 1 C5.66 1.99 6.32 2.98 7 4 C4.31941902 7.57410797 1.57410797 10.31941902 -2 13 C-2.33 12.01 -2.66 11.02 -3 10 C-2.34 10 -1.68 10 -1 10 C-1 9.34 -1 8.68 -1 8 C-0.01 8 0.98 8 2 8 C2.33 6.68 2.66 5.36 3 4 C1.68 3.34 0.36 2.68 -1 2 C-0.67 1.34 -0.34 0.68 0 0 Z " fill="#F6DFDE" transform="translate(88,112)"/>
<path d="M0 0 C0.99 0.99 1.98 1.98 3 3 C3.66 2.67 4.32 2.34 5 2 C5 2.99 5 3.98 5 5 C4.01 5.66 3.02 6.32 2 7 C0.80767387 9.05003955 0.80767387 9.05003955 0 11 C-0.66 11 -1.32 11 -2 11 C-3.35384615 4.6 -3.35384615 4.6 -1.5625 1.5625 C-1.046875 1.046875 -0.53125 0.53125 0 0 Z " fill="#C81028" transform="translate(123,103)"/>
<path d="M0 0 C2.35953094 2.35953094 2.49141413 3.77895617 3 7 C2.34 7 1.68 7 1 7 C0.67 7.66 0.34 8.32 0 9 C0 8.34 0 7.68 0 7 C-0.66 7 -1.32 7 -2 7 C-2.33 7.99 -2.66 8.98 -3 10 C-3.33 10 -3.66 10 -4 10 C-4.25 7.25 -4.25 7.25 -4 4 C-2 1.625 -2 1.625 0 0 Z " fill="#F1E9EC" transform="translate(12,134)"/>
<path d="M0 0 C0.33 1.32 0.66 2.64 1 4 C1.66 4 2.32 4 3 4 C3.33 3.34 3.66 2.68 4 2 C4.66 2.66 5.32 3.32 6 4 C6.99 4.33 7.98 4.66 9 5 C8.34 6.98 7.68 8.96 7 11 C5.87105124 10.06725891 4.74699124 9.12859878 3.625 8.1875 C2.99851562 7.66542969 2.37203125 7.14335938 1.7265625 6.60546875 C0 5 0 5 -2 2 C-1.34 2 -0.68 2 0 2 C0 1.34 0 0.68 0 0 Z " fill="#ECDAD9" transform="translate(55,116)"/>
<path d="M0 0 C5 1 5 1 7 3 C7 4.32 7 5.64 7 7 C6.01 7 5.02 7 4 7 C4.33 9.97 4.66 12.94 5 16 C4.67 16 4.34 16 4 16 C2.68 10.72 1.36 5.44 0 0 Z " fill="#F8E0E1" transform="translate(213,85)"/>
<path d="M0 0 C0.99 0 1.98 0 3 0 C3 0.66 3 1.32 3 2 C5.97 2.495 5.97 2.495 9 3 C7.29374499 5.78388975 6.52373261 6.85384206 3.3125 7.75 C2.1678125 7.87375 2.1678125 7.87375 1 8 C0.34 5.69 -0.32 3.38 -1 1 C-0.67 0.67 -0.34 0.34 0 0 Z " fill="#C61B32" transform="translate(137,88)"/>
<path d="M0 0 C0.61875 0.33 1.2375 0.66 1.875 1 C3.91018344 2.14193235 3.91018344 2.14193235 6 2 C4.44298069 6.67105792 1.91552627 10.08705685 -1 14 C-1.33 12.68 -1.66 11.36 -2 10 C-1.01 9.67 -0.02 9.34 1 9 C0.65213292 7.02463255 0.65213292 7.02463255 0 5 C-0.66 4.67 -1.32 4.34 -2 4 C-1.34 2.68 -0.68 1.36 0 0 Z " fill="#FAE0E5" transform="translate(147,154)"/>
<path d="M0 0 C0 0.66 0 1.32 0 2 C-2.31 2.66 -4.62 3.32 -7 4 C-7.33 5.65 -7.66 7.3 -8 9 C-9.32 9.33 -10.64 9.66 -12 10 C-11.34 9.67 -10.68 9.34 -10 9 C-10 8.34 -10 7.68 -10 7 C-10.99 6.67 -11.98 6.34 -13 6 C-9.45242789 2.45242789 -5.12778821 0 0 0 Z " fill="#991F2B" transform="translate(60,45)"/>
<path d="M0 0 C1.32 0.66 2.64 1.32 4 2 C4 2.66 4 3.32 4 4 C4.99 4.33 5.98 4.66 7 5 C7 5.66 7 6.32 7 7 C6.05125 6.67 5.1025 6.34 4.125 6 C1.22937548 4.89840809 1.22937548 4.89840809 -1 5 C-2.66666667 5 -4.33333333 5 -6 5 C-6 3.68 -6 2.36 -6 1 C-3.03 1.495 -3.03 1.495 0 2 C0 1.34 0 0.68 0 0 Z " fill="#E8102E" transform="translate(191,59)"/>
<path d="M0 0 C0.33 0 0.66 0 1 0 C1.8125 3.1875 1.8125 3.1875 2 7 C-0.3125 9.9375 -0.3125 9.9375 -3 12 C-3.66 12 -4.32 12 -5 12 C-5 12.66 -5 13.32 -5 14 C-5.66 13.67 -6.32 13.34 -7 13 C-3.535 6.565 -3.535 6.565 0 0 Z " fill="#FAD9E1" transform="translate(139,136)"/>
<path d="M0 0 C5.61 0 11.22 0 17 0 C17 0.33 17 0.66 17 1 C12.05 1.33 7.1 1.66 2 2 C1.67 4.64 1.34 7.28 1 10 C0.34 10 -0.32 10 -1 10 C-0.67 6.7 -0.34 3.4 0 0 Z " fill="#C1213C" transform="translate(166,114)"/>
<path d="M0 0 C3.3 0 6.6 0 10 0 C8.875 2.5 8.875 2.5 7 5 C3.8125 5.3125 3.8125 5.3125 1 5 C0.67 3.35 0.34 1.7 0 0 Z " fill="#CB0F29" transform="translate(120,115)"/>
<path d="M0 0 C-0.95421808 1.14926266 -1.91352045 2.29430541 -2.875 3.4375 C-3.40867188 4.07558594 -3.94234375 4.71367187 -4.4921875 5.37109375 C-6 7 -6 7 -8 8 C-8.93423645 4.98968256 -9.04449911 4.13349732 -8 1 C-5.29120665 -0.35439668 -2.99066732 -0.06501451 0 0 Z " fill="#F6E6E4" transform="translate(145,168)"/>
<path d="M0 0 C-2.97 2.97 -5.94 5.94 -9 9 C-9.66 7.68 -10.32 6.36 -11 5 C-9.68 5 -8.36 5 -7 5 C-6.67 3.35 -6.34 1.7 -6 0 C-3 -1 -3 -1 0 0 Z " fill="#B82B3F" transform="translate(142,96)"/>
<path d="M0 0 C0.99 0 1.98 0 3 0 C2.67 4.29 2.34 8.58 2 13 C1.01 13 0.02 13 -1 13 C-1.02696365 11.20841511 -1.04637917 9.41671527 -1.0625 7.625 C-1.07410156 6.62726563 -1.08570312 5.62953125 -1.09765625 4.6015625 C-1 2 -1 2 0 0 Z " fill="#FBDADD" transform="translate(81,95)"/>
<path d="M0 0 C0.33 0.99 0.66 1.98 1 3 C0.67 3.66 0.34 4.32 0 5 C-0.598125 5.0825 -1.19625 5.165 -1.8125 5.25 C-5.17240285 6.40196669 -6.14381454 9.09197611 -8 12 C-8.66 12 -9.32 12 -10 12 C-8.73050758 7.810675 -4.99190297 0 0 0 Z " fill="#952133" transform="translate(28,65)"/>
<path d="M0 0 C0.99 0 1.98 0 3 0 C1.44000455 4.21198772 -1.55248619 6.27071823 -5 9 C-5.66 9.66 -6.32 10.32 -7 11 C-6.37312706 8.07459296 -5.64872507 5.5164751 -4 3 C-1.875 2.25 -1.875 2.25 0 2 C0 1.34 0 0.68 0 0 Z " fill="#B61E2E" transform="translate(103,108)"/>
<path d="M0 0 C0.33 1.32 0.66 2.64 1 4 C0.34 4 -0.32 4 -1 4 C-1 4.99 -1 5.98 -1 7 C-3.5 9.1875 -3.5 9.1875 -6 11 C-6.66 10.01 -7.32 9.02 -8 8 C-5.36 5.36 -2.72 2.72 0 0 Z " fill="#FCE8EA" transform="translate(149,88)"/>
<path d="M0 0 C1.98 0.495 1.98 0.495 4 1 C4 4.63 4 8.26 4 12 C3.34 10.68 2.68 9.36 2 8 C1.34 8 0.68 8 0 8 C-0.33 6.68 -0.66 5.36 -1 4 C-0.34 4 0.32 4 1 4 C0.67 2.68 0.34 1.36 0 0 Z " fill="#A11C31" transform="translate(58,88)"/>
<path d="M0 0 C-1.65 0.66 -3.3 1.32 -5 2 C-5 2.66 -5 3.32 -5 4 C-8.63 3.67 -12.26 3.34 -16 3 C-16 2.67 -16 2.34 -16 2 C-13.71022755 1.47090114 -11.41810812 0.95194981 -9.125 0.4375 C-7.84882812 0.14746094 -6.57265625 -0.14257812 -5.2578125 -0.44140625 C-2 -1 -2 -1 0 0 Z " fill="#EFCED2" transform="translate(99,176)"/>
<path d="M0 0 C0.99 0.33 1.98 0.66 3 1 C1.58707905 5.8274799 -0.42974154 9.7162359 -3 14 C-4 12 -4 12 -3.22265625 9.1796875 C-2.83980469 8.08914062 -2.45695313 6.99859375 -2.0625 5.875 C-1.68222656 4.77929688 -1.30195313 3.68359375 -0.91015625 2.5546875 C-0.60980469 1.71164063 -0.30945313 0.86859375 0 0 Z " fill="#AE2239" transform="translate(137,133)"/>
<path d="M0 0 C0.33 0.66 0.66 1.32 1 2 C0.34 2 -0.32 2 -1 2 C-1 2.66 -1 3.32 -1 4 C-2.4272432 5.22809298 -3.86038617 6.45048041 -5.33203125 7.625 C-7.72447313 9.59722375 -9.84062716 11.77711619 -12 14 C-12 11 -12 11 -9.9375 8.6875 C-6.68723577 5.713854 -3.37517486 2.83047805 0 0 Z " fill="#A81D34" transform="translate(111,55)"/>
<path d="M0 0 C0 0.99 0 1.98 0 3 C-11.385 2.505 -11.385 2.505 -23 2 C-23 1.67 -23 1.34 -23 1 C-19.91675903 0.83159521 -16.83339379 0.66558138 -13.75 0.5 C-12.87730469 0.45230469 -12.00460938 0.40460937 -11.10546875 0.35546875 C-10.26113281 0.31035156 -9.41679687 0.26523437 -8.546875 0.21875 C-7.38430176 0.1559082 -7.38430176 0.1559082 -6.19824219 0.09179688 C-4.13373418 0.00558463 -2.0663073 0 0 0 Z " fill="#FED4DA" transform="translate(164,41)"/>
<path d="M0 0 C-0.33 1.32 -0.66 2.64 -1 4 C-0.34 4.33 0.32 4.66 1 5 C-0.98 5.99 -0.98 5.99 -3 7 C-3.66 6.01 -4.32 5.02 -5 4 C-5.33 4.66 -5.66 5.32 -6 6 C-6.66 5.34 -7.32 4.68 -8 4 C-3.375 0 -3.375 0 0 0 Z " fill="#FBEBEE" transform="translate(122,163)"/>
<path d="M0 0 C0.66 0.66 1.32 1.32 2 2 C1.67 2.99 1.34 3.98 1 5 C0.01 5 -0.98 5 -2 5 C-2.433125 6.2065625 -2.433125 6.2065625 -2.875 7.4375 C-4 10 -4 10 -6 11 C-6.33 9.02 -6.66 7.04 -7 5 C-6.030625 4.54625 -5.06125 4.0925 -4.0625 3.625 C-0.92920418 2.34213779 -0.92920418 2.34213779 0 0 Z " fill="#9A1021" transform="translate(34,59)"/>
<path d="M0 0 C1.32 0 2.64 0 4 0 C4.33 1.32 4.66 2.64 5 4 C4.01 4.33 3.02 4.66 2 5 C1.26676204 7.01508358 1.26676204 7.01508358 1 9 C0.34 8.34 -0.32 7.68 -1 7 C-0.625 3.375 -0.625 3.375 0 0 Z " fill="#EB0E2E" transform="translate(210,120)"/>
<path d="M0 0 C0.66 0.99 1.32 1.98 2 3 C1.33333333 4.33333333 0.66666667 5.66666667 0 7 C-0.495 8.051875 -0.99 9.10375 -1.5 10.1875 C-3 13 -3 13 -5 14 C-4.54636829 12.41531323 -4.08688548 10.83230076 -3.625 9.25 C-3.36976562 8.36828125 -3.11453125 7.4865625 -2.8515625 6.578125 C-2.0790066 4.23919428 -1.16374324 2.16557438 0 0 Z " fill="#F4D1D6" transform="translate(70,70)"/>
<path d="M0 0 C1.37478516 0.01740234 1.37478516 0.01740234 2.77734375 0.03515625 C3.69644531 0.04417969 4.61554688 0.05320313 5.5625 0.0625 C6.27277344 0.07410156 6.98304687 0.08570313 7.71484375 0.09765625 C8.04484375 0.75765625 8.37484375 1.41765625 8.71484375 2.09765625 C5.80884114 3.35430603 3.91879791 4.09765625 0.71484375 4.09765625 C0.38484375 3.43765625 0.05484375 2.77765625 -0.28515625 2.09765625 C-1.27515625 1.76765625 -2.26515625 1.43765625 -3.28515625 1.09765625 C-2.28515625 0.09765625 -2.28515625 0.09765625 0 0 Z " fill="#EDF1F1" transform="translate(61.28515625,179.90234375)"/>
<path d="M0 0 C2.97 0.495 2.97 0.495 6 1 C6 1.99 6 2.98 6 4 C5 5 5 5 2.4375 5.0625 C1.2309375 5.0315625 1.2309375 5.0315625 0 5 C0 3.35 0 1.7 0 0 Z " fill="#E7102D" transform="translate(168,168)"/>
<path d="M0 0 C-6.27692308 4.06153846 -6.27692308 4.06153846 -9.9375 3.75 C-10.618125 3.5025 -11.29875 3.255 -12 3 C-12 2.34 -12 1.68 -12 1 C-10.37681021 0.63762737 -8.7513642 0.28534843 -7.125 -0.0625 C-6.22007812 -0.25972656 -5.31515625 -0.45695313 -4.3828125 -0.66015625 C-2 -1 -2 -1 0 0 Z " fill="#EFF2EE" transform="translate(172,178)"/>
<path d="M0 0 C1.98 0.99 3.96 1.98 6 3 C5.67 3.66 5.34 4.32 5 5 C3.125 5.5625 3.125 5.5625 1 6 C0.01 6.33 -0.98 6.66 -2 7 C-1.125 2.25 -1.125 2.25 0 0 Z " fill="#F8E4E5" transform="translate(38,167)"/>
<path d="M0 0 C0 3.79330832 -1.17710681 5.01684801 -3.375 8.0625 C-4.00148437 8.94035156 -4.62796875 9.81820312 -5.2734375 10.72265625 C-7 13 -7 13 -9 15 C-9 10.00988077 -7.68619488 8.96722736 -4.5 5.25 C-3.6646875 4.26515625 -2.829375 3.2803125 -1.96875 2.265625 C-0.99421875 1.14414063 -0.99421875 1.14414063 0 0 Z " fill="#BC263E" transform="translate(151,160)"/>
<path d="M0 0 C1.33897583 0.95043374 2.67105427 1.91059147 4 2.875 C5.11375 3.67550781 5.11375 3.67550781 6.25 4.4921875 C6.8275 4.98976563 7.405 5.48734375 8 6 C8 6.66 8 7.32 8 8 C6.68 8.33 5.36 8.66 4 9 C3.67 7.35 3.34 5.7 3 4 C2.01 4 1.02 4 0 4 C0 2.68 0 1.36 0 0 Z " fill="#FBDFE1" transform="translate(168,99)"/>
<path d="M0 0 C0.99 0.33 1.98 0.66 3 1 C2.52949219 1.53109375 2.05898437 2.0621875 1.57421875 2.609375 C0.95160156 3.31578125 0.32898438 4.0221875 -0.3125 4.75 C-1.23482422 5.79414062 -1.23482422 5.79414062 -2.17578125 6.859375 C-3.87314734 8.85114506 -5.45477809 10.88898915 -7 13 C-6.125 8.25 -6.125 8.25 -5 6 C-4.34 6 -3.68 6 -3 6 C-3 5.01 -3 4.02 -3 3 C-2.34 3 -1.68 3 -1 3 C-0.67 2.01 -0.34 1.02 0 0 Z " fill="#F7CED1" transform="translate(98,64)"/>
<path d="M0 0 C0 0.99 0 1.98 0 3 C-4.1196377 4.29243536 -7.66831683 5.26252625 -12 5 C-8.51164396 2.04831412 -4.66588377 0 0 0 Z " fill="#C82644" transform="translate(133,45)"/>
<path d="M0 0 C1.07735006 3.23205018 0.92640423 4.33577435 0.1875 7.5625 C0.01605469 8.34753906 -0.15539062 9.13257813 -0.33203125 9.94140625 C-1 12 -1 12 -3 14 C-3.99 14.495 -3.99 14.495 -5 15 C-5.33 14.01 -5.66 13.02 -6 12 C-5.00795408 10.66073801 -4.00573778 9.32901064 -3 8 C-1.87334072 5.36776016 -0.94686344 2.70532411 0 0 Z " fill="#D71A3A" transform="translate(154,154)"/>
<path d="M0 0 C0.99 0.33 1.98 0.66 3 1 C3 1.66 3 2.32 3 3 C3.66 3 4.32 3 5 3 C5.33 2.01 5.66 1.02 6 0 C6.33 0.99 6.66 1.98 7 3 C6.01 4.485 6.01 4.485 5 6 C3.02 5.34 1.04 4.68 -1 4 C-0.67 2.68 -0.34 1.36 0 0 Z " fill="#9B2639" transform="translate(69,135)"/>
<path d="M0 0 C0.66 0.66 1.32 1.32 2 2 C1.04956626 3.33897583 0.08940853 4.67105427 -0.875 6 C-1.40867187 6.7425 -1.94234375 7.485 -2.4921875 8.25 C-2.98976563 8.8275 -3.48734375 9.405 -4 10 C-4.66 10 -5.32 10 -6 10 C-6 9.01 -6 8.02 -6 7 C-5.34 7 -4.68 7 -4 7 C-4 5.68 -4 4.36 -4 3 C-2.68 2.67 -1.36 2.34 0 2 C0 1.34 0 0.68 0 0 Z " fill="#952635" transform="translate(79,53)"/>
<path d="M0 0 C0.66 0.33 1.32 0.66 2 1 C1.67 2.65 1.34 4.3 1 6 C-0.32 6.33 -1.64 6.66 -3 7 C-3 6.34 -3 5.68 -3 5 C-3.66 4.67 -4.32 4.34 -5 4 C-3.35 2.68 -1.7 1.36 0 0 Z " fill="#9C2531" transform="translate(83,128)"/>
<path d="M0 0 C0.33 0.99 0.66 1.98 1 3 C6.28 3 11.56 3 17 3 C17 3.33 17 3.66 17 4 C10.73 4 4.46 4 -2 4 C-1.34 2.68 -0.68 1.36 0 0 Z " fill="#F9C1C5" transform="translate(127,110)"/>
<path d="M0 0 C2.31 0 4.62 0 7 0 C6.67 1.32 6.34 2.64 6 4 C3.03 3.67 0.06 3.34 -3 3 C-2.01 2.67 -1.02 2.34 0 2 C0 1.34 0 0.68 0 0 Z " fill="#E21532" transform="translate(121,50)"/>
<path d="M0 0 C1.46015291 0.28241641 2.91809793 0.57626614 4.375 0.875 C5.18710938 1.03742188 5.99921875 1.19984375 6.8359375 1.3671875 C9 2 9 2 11 4 C6.71 3.67 2.42 3.34 -2 3 C-1.34 2.67 -0.68 2.34 0 2 C0 1.34 0 0.68 0 0 Z " fill="#F5D6DA" transform="translate(61,177)"/>
<path d="M0 0 C0.33 0.66 0.66 1.32 1 2 C1.66 2 2.32 2 3 2 C2.34 3.98 1.68 5.96 1 8 C0.01 8 -0.98 8 -2 8 C-2 6.02 -2 4.04 -2 2 C-1.34 2 -0.68 2 0 2 C0 1.34 0 0.68 0 0 Z " fill="#E6112F" transform="translate(202,145)"/>
<path d="M0 0 C4.875 4.75 4.875 4.75 6 7 C4.68 7.33 3.36 7.66 2 8 C0.4375 6.25 0.4375 6.25 -1 4 C-0.6875 1.75 -0.6875 1.75 0 0 Z " fill="#F2DDDD" transform="translate(18,147)"/>
<path d="M0 0 C3.24208567 0.35049575 4.61527704 0.56221181 6.8125 3.0625 C7.204375 3.701875 7.59625 4.34125 8 5 C7.67 5.66 7.34 6.32 7 7 C6.01 6.34 5.02 5.68 4 5 C3.34 5 2.68 5 2 5 C2 4.34 2 3.68 2 3 C1.34 2.67 0.68 2.34 0 2 C0 1.34 0 0.68 0 0 Z " fill="#9C202F" transform="translate(58,126)"/>
<path d="M0 0 C1.14926266 0.95421808 2.29430541 1.91352045 3.4375 2.875 C4.07558594 3.40867187 4.71367188 3.94234375 5.37109375 4.4921875 C7 6 7 6 8 8 C5.0625 7.25 5.0625 7.25 2 6 C1.25 3.9375 1.25 3.9375 1 2 C0.34 1.67 -0.32 1.34 -1 1 C-0.67 0.67 -0.34 0.34 0 0 Z " fill="#8E1723" transform="translate(42,108)"/>
<path d="M0 0 C0.66 0.33 1.32 0.66 2 1 C1.67 2.32 1.34 3.64 1 5 C-2.3 5 -5.6 5 -9 5 C-8.01 4.67 -7.02 4.34 -6 4 C-5.67 3.34 -5.34 2.68 -5 2 C-5 2.66 -5 3.32 -5 4 C-3.35 2.68 -1.7 1.36 0 0 Z " fill="#BF1428" transform="translate(96,102)"/>
<path d="M0 0 C3.7910119 1.44950455 7.3874638 3.15172566 11 5 C10.67 5.99 10.34 6.98 10 8 C8.33055479 6.85821872 6.6645052 5.71147095 5 4.5625 C4.071875 3.92441406 3.14375 3.28632813 2.1875 2.62890625 C1.465625 2.09136719 0.74375 1.55382812 0 1 C0 0.67 0 0.34 0 0 Z " fill="#8B2935" transform="translate(32,162)"/>
<path d="M0 0 C0.66 0.33 1.32 0.66 2 1 C1.19185349 2.33597652 0.37836819 3.668725 -0.4375 5 C-0.88996094 5.7425 -1.34242188 6.485 -1.80859375 7.25 C-2.20175781 7.8275 -2.59492188 8.405 -3 9 C-3.33 9 -3.66 9 -4 9 C-4 3 -4 3 -3 1 C-2.01 0.67 -1.02 0.34 0 0 Z " fill="#CA233A" transform="translate(207,144)"/>
<path d="M0 0 C1.65 0 3.3 0 5 0 C5.66 1.65 6.32 3.3 7 5 C6.01 5 5.02 5 4 5 C1.8125 2.5 1.8125 2.5 0 0 Z " fill="#CD3047" transform="translate(176,106)"/>
<path d="M0 0 C0.99 0.33 1.98 0.66 3 1 C0.525 5.455 0.525 5.455 -2 10 C-2.66 9.67 -3.32 9.34 -4 9 C-2.94124926 5.59687262 -1.99097846 2.98646769 0 0 Z " fill="#F8DDDE" transform="translate(17,73)"/>
<path d="M0 0 C2.74931827 0.68732957 4.53418821 1.35560222 6.22265625 3.69140625 C7.20324656 5.43116325 8.10688055 7.2137611 9 9 C8.01 9.495 8.01 9.495 7 10 C5.83043409 8.52312468 4.66441854 7.04343707 3.5 5.5625 C2.8503125 4.73878906 2.200625 3.91507812 1.53125 3.06640625 C0 1 0 1 0 0 Z " fill="#FDE3E4" transform="translate(200,64)"/>
<path d="M0 0 C0.99 0.66 1.98 1.32 3 2 C-1.75 6.875 -1.75 6.875 -4 8 C-4.33 7.01 -4.66 6.02 -5 5 C-4.34 4.01 -3.68 3.02 -3 2 C-2.34 2.33 -1.68 2.66 -1 3 C-0.67 2.01 -0.34 1.02 0 0 Z " fill="#F1DCDC" transform="translate(80,127)"/>
<path d="M0 0 C2.31 1.65 4.62 3.3 7 5 C3.34566236 6.21811255 2.39369816 5.56632223 -1 4 C-1.66 3.67 -2.32 3.34 -3 3 C-2.01 2.01 -1.02 1.02 0 0 Z " fill="#FCD6DA" transform="translate(153,84)"/>
<path d="M0 0 C0.66 0 1.32 0 2 0 C0.50902342 3.7952131 -1.75700849 5.61042731 -5 8 C-4.67 6.35 -4.34 4.7 -4 3 C-2.68 2.67 -1.36 2.34 0 2 C0 1.34 0 0.68 0 0 Z " fill="#CB314C" transform="translate(151,83)"/>
<path d="M0 0 C0 0.66 0 1.32 0 2 C-0.99 2 -1.98 2 -3 2 C-3.33 3.32 -3.66 4.64 -4 6 C-5.65 5.67 -7.3 5.34 -9 5 C-6.45523312 2.20075644 -3.92372883 0 0 0 Z " fill="#C2273D" transform="translate(121,50)"/>
<path d="M0 0 C3.96 0 7.92 0 12 0 C12 0.33 12 0.66 12 1 C9.36 1 6.72 1 4 1 C4 1.66 4 2.32 4 3 C2.35 3 0.7 3 -1 3 C-0.67 2.01 -0.34 1.02 0 0 Z " fill="#E6112F" transform="translate(148,45)"/>
<path d="M0 0 C-2.93828597 2.50298434 -5.17902761 3.46930939 -9 4 C-9 2 -9 2 -7 0 C-3.99340864 -1.066855 -3.14820941 -1.04940314 0 0 Z " fill="#8E1423" transform="translate(106,171)"/>
<path d="M0 0 C0.66 0.33 1.32 0.66 2 1 C1.34 3.97 0.68 6.94 0 10 C-0.66 9.67 -1.32 9.34 -2 9 C-1.125 2.25 -1.125 2.25 0 0 Z " fill="#941C2E" transform="translate(14,83)"/>
<path d="M0 0 C3.98175544 2.10148204 6.35039045 4.36905358 9 8 C7.68 7.67 6.36 7.34 5 7 C5 6.34 5 5.68 5 5 C4.360625 4.731875 3.72125 4.46375 3.0625 4.1875 C1 3 1 3 0 0 Z " fill="#C22C43" transform="translate(190,56)"/>
<path d="M0 0 C0 0.66 0 1.32 0 2 C-3.3 2 -6.6 2 -10 2 C-9.67 1.34 -9.34 0.68 -9 0 C-5.65506316 -0.99444068 -3.31044803 -1.10348268 0 0 Z " fill="#CF1026" transform="translate(124,62)"/>
<path d="M0 0 C0.99 0.33 1.98 0.66 3 1 C2.0479279 2.00596297 1.08812654 3.00461563 0.125 4 C-0.40867188 4.556875 -0.94234375 5.11375 -1.4921875 5.6875 C-3 7 -3 7 -5 7 C-4.34 5.68 -3.68 4.36 -3 3 C-2.34 3 -1.68 3 -1 3 C-0.67 2.01 -0.34 1.02 0 0 Z " fill="#AD303D" transform="translate(129,105)"/>
<path d="M0 0 C3.14688078 1.57344039 4.79965407 4.27851951 7 7 C4 7 4 7 1.8125 5.1875 C0 3 0 3 0 0 Z " fill="#CC3147" transform="translate(168,96)"/>
<path d="M0 0 C0.99 0 1.98 0 3 0 C3.33 1.65 3.66 3.3 4 5 C2.68 5.33 1.36 5.66 0 6 C-1.125 2.25 -1.125 2.25 0 0 Z " fill="#E51334" transform="translate(142,86)"/>
<path d="M0 0 C0.66 0 1.32 0 2 0 C1.01 3.3 0.02 6.6 -1 10 C-1.33 10 -1.66 10 -2 10 C-1.85950482 8.52031676 -1.71245174 7.04125484 -1.5625 5.5625 C-1.48128906 4.73878906 -1.40007812 3.91507812 -1.31640625 3.06640625 C-1 1 -1 1 0 0 Z " fill="#F6D9E0" transform="translate(87,80)"/>
<path d="M0 0 C0.66 0 1.32 0 2 0 C2 0.66 2 1.32 2 2 C2.66 2 3.32 2 4 2 C4.33 3.32 4.66 4.64 5 6 C4.01 6 3.02 6 2 6 C0 3 0 3 0 0 Z " fill="#E31432" transform="translate(200,68)"/>
<path d="M0 0 C3.3 0.33 6.6 0.66 10 1 C9.67 1.99 9.34 2.98 9 4 C6.03 3.01 3.06 2.02 0 1 C0 0.67 0 0.34 0 0 Z " fill="#F9CBCE" transform="translate(172,46)"/>
<path d="M0 0 C0.99 0.33 1.98 0.66 3 1 C1.35 2.65 -0.3 4.3 -2 6 C-2.33 4.68 -2.66 3.36 -3 2 C-2.01 1.34 -1.02 0.68 0 0 Z " fill="#FBDBDC" transform="translate(99,108)"/>
<path d="M0 0 C0.66 0.66 1.32 1.32 2 2 C1.01 4.97 0.02 7.94 -1 11 C-1.33 11 -1.66 11 -2 11 C-1.85957123 9.35369672 -1.71250671 7.70795821 -1.5625 6.0625 C-1.48128906 5.14597656 -1.40007813 4.22945313 -1.31640625 3.28515625 C-1 1 -1 1 0 0 Z " fill="#FBDCE1" transform="translate(12,83)"/>
<path d="M0 0 C0.66 0.66 1.32 1.32 2 2 C1.67 2.99 1.34 3.98 1 5 C-0.65 5.33 -2.3 5.66 -4 6 C-1.125 1.125 -1.125 1.125 0 0 Z " fill="#B1122B" transform="translate(25,69)"/>
<path d="M0 0 C0.99 0.33 1.98 0.66 3 1 C1.35 2.65 -0.3 4.3 -2 6 C-2.99 5.67 -3.98 5.34 -5 5 C-4.01 4.67 -3.02 4.34 -2 4 C-2 3.01 -2 2.02 -2 1 C-1.34 0.67 -0.68 0.34 0 0 Z " fill="#F5D0D2" transform="translate(105,57)"/>
<path d="M0 0 C3.73487777 0.4979837 5.81237635 0.87491756 9 3 C8.67 3.99 8.34 4.98 8 6 C6.66402348 5.19185349 5.331275 4.37836819 4 3.5625 C3.2575 3.11003906 2.515 2.65757813 1.75 2.19140625 C1.1725 1.79824219 0.595 1.40507813 0 1 C0 0.67 0 0.34 0 0 Z " fill="#FAD6D9" transform="translate(183,51)"/>
<path d="M0 0 C0 1.98 0 3.96 0 6 C-1.32 5.67 -2.64 5.34 -4 5 C-4 4.01 -4 3.02 -4 2 C-1 0 -1 0 0 0 Z " fill="#EEF3EF" transform="translate(138,146)"/>
<path d="M0 0 C0.66 0 1.32 0 2 0 C1.67 3.3 1.34 6.6 1 10 C0.67 10 0.34 10 0 10 C-1.125 2.25 -1.125 2.25 0 0 Z " fill="#F5BAC2" transform="translate(164,114)"/>
<path d="M0 0 C0.99 0.33 1.98 0.66 3 1 C-0.465 3.97 -0.465 3.97 -4 7 C-4 6.01 -4 5.02 -4 4 C-3.34 4 -2.68 4 -2 4 C-1.34 2.68 -0.68 1.36 0 0 Z " fill="#86303A" transform="translate(87,44)"/>
<path d="M0 0 C1.8871875 0.0309375 1.8871875 0.0309375 3.8125 0.0625 C3.8125 0.3925 3.8125 0.7225 3.8125 1.0625 C-0.06434087 2.25537411 -3.10371923 3.0625 -7.1875 3.0625 C-7.1875 2.4025 -7.1875 1.7425 -7.1875 1.0625 C-4.43671116 0.14557039 -2.82801087 -0.04636083 0 0 Z " fill="#C61433" transform="translate(140.1875,43.9375)"/>
</svg>
