<?xml version="1.0" encoding="UTF-8"?>
<svg version="1.1" xmlns="http://www.w3.org/2000/svg" width="626" height="626">
<path d="M0 0 C206.58 0 413.16 0 626 0 C626 206.58 626 413.16 626 626 C419.42 626 212.84 626 0 626 C0 419.42 0 212.84 0 0 Z " fill="#D3D3D3" transform="translate(0,0)"/>
<path d="M0 0 C30.36 0 60.72 0 92 0 C92 0.66 92 1.32 92 2 C92.66 2 93.32 2 94 2 C93.65207991 4.57460866 93.34800447 6.50898597 91.83081055 8.6496582 C89.2023308 10.58833289 87.25774715 10.34035728 84.01953125 10.29296875 C82.85615234 10.28330078 81.69277344 10.27363281 80.49414062 10.26367188 C79.27919922 10.23853516 78.06425781 10.21339844 76.8125 10.1875 C75.58595703 10.17396484 74.35941406 10.16042969 73.09570312 10.14648438 C70.06336336 10.11108741 67.03190004 10.0617076 64 10 C64 10.66 64 11.32 64 12 C67.3 12 70.6 12 74 12 C74 12.66 74 13.32 74 14 C75.8253125 13.9071875 75.8253125 13.9071875 77.6875 13.8125 C81.58627784 13.82632545 83.9824696 14.34823086 87 17 C88 19.5 88 19.5 88 22 C86.8737793 23.62426758 86.8737793 23.62426758 85 25 C82.27270508 25.43237305 82.27270508 25.43237305 79.01953125 25.51171875 C77.85615234 25.54716797 76.69277344 25.58261719 75.49414062 25.61914062 C74.27919922 25.64169922 73.06425781 25.66425781 71.8125 25.6875 C70.58595703 25.72166016 69.35941406 25.75582031 68.09570312 25.79101562 C65.06389322 25.8735941 62.03237621 25.94271369 59 26 C65.14417119 28.12304905 71.24638064 29.83536537 77.59375 31.25390625 C78.3878125 31.50011719 79.181875 31.74632812 80 32 C81.39431504 34.78863007 81.25660094 36.92078868 81 40 C77.54829327 42.30113782 76.24965952 42.25264563 72.18334961 42.25878906 C70.98878647 42.26509338 69.79422333 42.27139771 68.5634613 42.27789307 C67.27279251 42.2738446 65.98212372 42.26979614 64.65234375 42.265625 C63.31620717 42.26697222 61.98007106 42.26891323 60.64393616 42.27142334 C57.845503 42.27437091 55.0471976 42.27008818 52.2487793 42.26074219 C48.658387 42.24933668 45.06829334 42.25591616 41.47791195 42.26788712 C38.71987142 42.27510629 35.96190197 42.27281775 33.20385933 42.26763153 C31.23510164 42.26564544 29.2663412 42.27172733 27.29759216 42.27789307 C26.10618118 42.27158875 24.9147702 42.26528442 23.68725586 42.25878906 C22.10865028 42.25640228 22.10865028 42.25640228 20.49815369 42.25396729 C18 42 18 42 16 40 C15.44154612 34.75053355 15.44154612 34.75053355 17.2265625 32.3515625 C19.44245455 30.66279895 20.92892532 30.51239672 23.6875 30.3125 C24.89986328 30.21388672 24.89986328 30.21388672 26.13671875 30.11328125 C27.05904297 30.05720703 27.05904297 30.05720703 28 30 C26.72382813 29.67386719 25.44765625 29.34773438 24.1328125 29.01171875 C22.46338266 28.57091424 20.79412034 28.12947496 19.125 27.6875 C18.28324219 27.47416016 17.44148438 27.26082031 16.57421875 27.04101562 C15.76855469 26.82509766 14.96289062 26.60917969 14.1328125 26.38671875 C13.38918457 26.19295654 12.64555664 25.99919434 11.87939453 25.79956055 C10 25 10 25 8 22 C7.75 19.4375 7.75 19.4375 8 17 C10.85793316 14.14206684 13.14665584 14.59200059 17.125 14.375 C18.40632813 14.30023438 19.68765625 14.22546875 21.0078125 14.1484375 C22.48894531 14.07496094 22.48894531 14.07496094 24 14 C20.7 13.34 17.4 12.68 14 12 C14 11.34 14 10.68 14 10 C13.16855469 10.04640625 12.33710938 10.0928125 11.48046875 10.140625 C10.39378906 10.17671875 9.30710937 10.2128125 8.1875 10.25 C6.56908203 10.31960938 6.56908203 10.31960938 4.91796875 10.390625 C2 10 2 10 0.05078125 8.359375 C-1 6 -1 6 0 0 Z " fill="#F17704" transform="translate(274,294)"/>
<path d="M0 0 C24 0 24 0 30 2 C30 2.66 30 3.32 30 4 C30.66 4 31.32 4 32 4 C32 4.66 32 5.32 32 6 C32.66 6 33.32 6 34 6 C34 7.32 34 8.64 34 10 C34.66 10 35.32 10 36 10 C36.05437607 11.58294782 36.09296271 13.16644256 36.125 14.75 C36.14820313 15.63171875 36.17140625 16.5134375 36.1953125 17.421875 C35.99139502 20.1135858 35.36551721 21.69904974 34 24 C33.34 24 32.68 24 32 24 C32 24.66 32 25.32 32 26 C31.34 26 30.68 26 30 26 C30 26.66 30 27.32 30 28 C30.66 28 31.32 28 32 28 C32 28.66 32 29.32 32 30 C33.32 30 34.64 30 36 30 C36 30.66 36 31.32 36 32 C36.66 32 37.32 32 38 32 C38 33.32 38 34.64 38 36 C38.66 36 39.32 36 40 36 C40.20413361 41.73842251 40.27141454 46.60539047 38 52 C37.34 52 36.68 52 36 52 C36 52.66 36 53.32 36 54 C35.34 54 34.68 54 34 54 C34 54.66 34 55.32 34 56 C33.34 56 32.68 56 32 56 C32 56.66 32 57.32 32 58 C22 61 22 61 0 61 C0 40.87 0 20.74 0 0 Z " fill="#F3930C" transform="translate(126,270)"/>
<path d="M0 0 C5.70502309 3.52053562 9.2156416 8.00812657 12.16015625 13.97265625 C12.16015625 18.26265625 12.16015625 22.55265625 12.16015625 26.97265625 C0.61015625 26.97265625 -10.93984375 26.97265625 -22.83984375 26.97265625 C-22.17984375 28.95265625 -21.51984375 30.93265625 -20.83984375 32.97265625 C-20.17984375 32.97265625 -19.51984375 32.97265625 -18.83984375 32.97265625 C-18.83984375 33.63265625 -18.83984375 34.29265625 -18.83984375 34.97265625 C-16.56907533 34.9996535 -14.29821554 35.01905078 -12.02734375 35.03515625 C-10.13048828 35.05255859 -10.13048828 35.05255859 -8.1953125 35.0703125 C-4.84379138 35.13424741 -4.84379138 35.13424741 -1.83984375 33.97265625 C-1.83984375 33.31265625 -1.83984375 32.65265625 -1.83984375 31.97265625 C2.45015625 31.97265625 6.74015625 31.97265625 11.16015625 31.97265625 C8.46446664 38.71188028 4.0180957 43.02265579 -2.71484375 45.91015625 C-8.69122714 47.80052506 -14.46721602 47.62717425 -20.46484375 45.97265625 C-27.18197131 41.99213622 -32.78645424 36.67286693 -34.83984375 28.97265625 C-35.68606669 21.32451475 -35.29916982 14.43867905 -30.83984375 7.97265625 C-22.53443857 -0.91140421 -11.76409527 -4.25578687 0 0 Z " fill="#E30B14" transform="translate(448.83984375,297.02734375)"/>
<path d="M0 0 C4.65094981 3.26206107 7.37238198 5.89294175 8.5 11.625 C8.5825 12.676875 8.665 13.72875 8.75 14.8125 C5.12 14.8125 1.49 14.8125 -2.25 14.8125 C-2.91 13.1625 -3.57 11.5125 -4.25 9.8125 C-8.2600934 9.63385369 -8.2600934 9.63385369 -12.25 9.8125 C-14.58300503 11.74827375 -14.58300503 11.74827375 -14.75 15.1875 C-14.62057256 18.91894477 -14.62057256 18.91894477 -11.9375 21 C-9.03177908 22.63877152 -5.97438046 23.58846068 -2.8125 24.625 C2.64886748 26.5025779 6.31438799 29.1560573 9.75 33.8125 C11.49758686 39.05526057 11.84131308 44.90070053 9.87890625 50.13671875 C6.58268942 55.81053461 2.03351482 59.71799506 -4.25 61.8125 C-11.47072878 62.51387652 -16.30019195 62.04347461 -22.25 57.8125 C-22.25 57.1525 -22.25 56.4925 -22.25 55.8125 C-22.86875 55.585625 -23.4875 55.35875 -24.125 55.125 C-26.96423268 53.37135629 -27.37962687 52.00386813 -28.25 48.8125 C-28.375 45.5 -28.375 45.5 -28.25 42.8125 C-24.62 42.8125 -20.99 42.8125 -17.25 42.8125 C-16.79625 43.781875 -16.3425 44.75125 -15.875 45.75 C-14.59213779 48.88329582 -14.59213779 48.88329582 -12.25 49.8125 C-7.69452917 50.07035684 -4.3719364 49.81101462 -0.25 47.8125 C-0.58816136 41.48582565 -0.58816136 41.48582565 -3.84765625 36.3984375 C-5.94879948 35.37084061 -8.03567442 34.56574922 -10.25 33.8125 C-16.81593455 31.34335429 -21.34780973 28.81908574 -25.25 22.8125 C-26.96485287 17.66794138 -27.18767043 12.03329839 -25.0625 7 C-18.44019752 -0.99243402 -9.83789765 -5.81496553 0 0 Z " fill="#E40D16" transform="translate(398.25,282.1875)"/>
<path d="M0 0 C30.36 0 60.72 0 92 0 C92 0.66 92 1.32 92 2 C92.66 2 93.32 2 94 2 C93.65207991 4.57460866 93.34800447 6.50898597 91.83081055 8.6496582 C89.2023308 10.58833289 87.25774715 10.34035728 84.01953125 10.29296875 C82.85615234 10.28330078 81.69277344 10.27363281 80.49414062 10.26367188 C79.27919922 10.23853516 78.06425781 10.21339844 76.8125 10.1875 C75.58595703 10.17396484 74.35941406 10.16042969 73.09570312 10.14648438 C70.06336336 10.11108741 67.03190004 10.0617076 64 10 C64 10.66 64 11.32 64 12 C67.3 12 70.6 12 74 12 C74 12.66 74 13.32 74 14 C67.06236942 14.05099583 60.12478776 14.08585714 53.18701172 14.10986328 C50.83022251 14.11987842 48.47344559 14.13349442 46.11669922 14.15087891 C42.71578932 14.17532519 39.31504469 14.18652831 35.9140625 14.1953125 C34.35094833 14.21079636 34.35094833 14.21079636 32.7562561 14.22659302 C26.26995176 14.22757258 20.30427097 13.53497658 14 12 C14 11.34 14 10.68 14 10 C13.16855469 10.04640625 12.33710938 10.0928125 11.48046875 10.140625 C10.39378906 10.17671875 9.30710937 10.2128125 8.1875 10.25 C6.56908203 10.31960938 6.56908203 10.31960938 4.91796875 10.390625 C2 10 2 10 0.05078125 8.359375 C-1 6 -1 6 0 0 Z " fill="#FCC206" transform="translate(274,294)"/>
<path d="M0 0 C4.29 0 8.58 0 13 0 C13 1.65 13 3.3 13 5 C13.66 5 14.32 5 15 5 C15.9829057 7.89461219 16.96143701 10.79058079 17.9375 13.6875 C18.35418945 14.91243164 18.35418945 14.91243164 18.77929688 16.16210938 C20.09735873 20.0845344 21.34053586 23.90130514 22 28 C22.66 28 23.32 28 24 28 C24.10570312 27.33742188 24.21140625 26.67484375 24.3203125 25.9921875 C25.17338158 22.23672246 26.50030558 18.71261716 27.875 15.125 C28.13152344 14.44308594 28.38804687 13.76117188 28.65234375 13.05859375 C30.3222227 8.6531342 32.11697527 4.31855373 34 0 C37.96 0 41.92 0 46 0 C44.33333333 5 42.66666667 10 41 15 C40.34 15 39.68 15 39 15 C38.9175 15.825 38.835 16.65 38.75 17.5 C37.98004536 21.09312165 36.75501204 23.68395534 35.0546875 26.8984375 C33.41386285 30.16793254 32.22955279 33.55725219 31 37 C30.34 37 29.68 37 29 37 C29 38.98 29 40.96 29 43 C28.34 43 27.68 43 27 43 C26.9175 43.825 26.835 44.65 26.75 45.5 C25.96901239 49.14460884 24.70839259 51.82801651 22.9375 55.0703125 C21.98367761 57.03359691 21.45422913 58.87080096 21 61 C19.68 61 18.36 61 17 61 C17 60.34 17 59.68 17 59 C16.01 59 15.02 59 14 59 C11.93907432 54.87814865 12.51511171 50.49066093 13.89453125 46.25 C14.87717833 43.80553518 15.90102029 41.3942058 17 39 C16.34 39 15.68 39 15 39 C9 24.26213592 9 24.26213592 9 19 C8.34 19 7.68 19 7 19 C7 17.68 7 16.36 7 15 C6.34 15 5.68 15 5 15 C5 13.02 5 11.04 5 9 C4.34 9 3.68 9 3 9 C3 7.68 3 6.36 3 5 C2.34 5 1.68 5 1 5 C0.67 3.35 0.34 1.7 0 0 Z " fill="#F2940E" transform="translate(219,285)"/>
<path d="M0 0 C1.98 0 3.96 0 6 0 C6.02505615 0.81678223 6.0501123 1.63356445 6.07592773 2.47509766 C6.19229143 6.19187549 6.31483472 9.90842502 6.4375 13.625 C6.47681641 14.91019531 6.51613281 16.19539063 6.55664062 17.51953125 C6.61948242 19.38544922 6.61948242 19.38544922 6.68359375 21.2890625 C6.72025146 22.43068848 6.75690918 23.57231445 6.79467773 24.74853516 C6.99326801 27.8933928 7.4238847 30.9041491 8 34 C9.32 34 10.64 34 12 34 C12 34.66 12 35.32 12 36 C14.64 36 17.28 36 20 36 C20 35.34 20 34.68 20 34 C20.66 34 21.32 34 22 34 C22 33.34 22 32.68 22 32 C22.66 32 23.32 32 24 32 C24 30.68 24 29.36 24 28 C24.66 28 25.32 28 26 28 C26 18.76 26 9.52 26 0 C29.3 0 32.6 0 36 0 C36 14.52 36 29.04 36 44 C32.7 44 29.4 44 26 44 C25.67 43.34 25.34 42.68 25 42 C24.4225 42.66 23.845 43.32 23.25 44 C18.40828373 46.97951771 13.55984521 46.65769833 8 46 C5.62890625 44.9765625 5.62890625 44.9765625 4 44 C4 43.34 4 42.68 4 42 C2.68 42 1.36 42 0 42 C0 41.34 0 40.68 0 40 C-0.66 40 -1.32 40 -2 40 C-2 38.68 -2 37.36 -2 36 C-2.66 36 -3.32 36 -4 36 C-4 25.44 -4 14.88 -4 4 C-3.34 4 -2.68 4 -2 4 C-2 3.34 -2 2.68 -2 2 C-1.34 2 -0.68 2 0 2 C0 1.34 0 0.68 0 0 Z " fill="#F59205" transform="translate(178,286)"/>
<path d="M0 0 C2.8561718 0.00544315 5.71219181 -0.0000244 8.56835938 -0.00634766 C10.39648472 -0.00568814 12.22460997 -0.00440963 14.05273438 -0.00244141 C15.32452545 -0.00547775 15.32452545 -0.00547775 16.62200928 -0.00857544 C17.80539886 -0.0038472 17.80539886 -0.0038472 19.01269531 0.00097656 C19.70167908 0.00177216 20.39066284 0.00256775 21.1005249 0.00338745 C23.22504517 0.14048197 25.05170369 0.44265061 27.06835938 1.13037109 C28.46267441 3.91900116 28.32496032 6.05115977 28.06835938 9.13037109 C24.61665264 11.43150892 23.31801889 11.38301673 19.25170898 11.38916016 C18.05714584 11.39546448 16.8625827 11.4017688 15.63182068 11.40826416 C14.34115189 11.4042157 13.05048309 11.40016724 11.72070312 11.39599609 C10.38456654 11.39734332 9.04843044 11.39928433 7.71229553 11.40179443 C4.91386237 11.404742 2.11555697 11.40045928 -0.68286133 11.39111328 C-4.27325363 11.37970777 -7.86334728 11.38628725 -11.45372868 11.39825821 C-14.21176921 11.40547738 -16.96973865 11.40318884 -19.7277813 11.39800262 C-21.69653899 11.39601653 -23.66529942 11.40209842 -25.63404846 11.40826416 C-27.42116493 11.39880768 -27.42116493 11.39880768 -29.24438477 11.38916016 C-30.82299034 11.38677338 -30.82299034 11.38677338 -32.43348694 11.38433838 C-34.93164062 11.13037109 -34.93164062 11.13037109 -36.93164062 9.13037109 C-37.18164062 6.13037109 -37.18164062 6.13037109 -36.93164062 3.13037109 C-30.56783408 -3.23343545 -8.75796069 -0.01991839 0 0 Z " fill="#E5080E" transform="translate(326.931640625,324.86962890625)"/>
<path d="M0 0 C1.32 0 2.64 0 4 0 C4 0.66 4 1.32 4 2 C5.32 2 6.64 2 8 2 C8 1.34 8 0.68 8 0 C8.66 0 9.32 0 10 0 C10 0.66 10 1.32 10 2 C24.19 2 38.38 2 53 2 C53.495 3.485 53.495 3.485 54 5 C47.565 5.495 47.565 5.495 41 6 C37.61873037 14.98290631 34.2525326 23.96943889 31 33 C30.34 33 29.68 33 29 33 C28.2066145 30.95900065 27.4153697 28.9171691 26.625 26.875 C26.18414062 25.73804688 25.74328125 24.60109375 25.2890625 23.4296875 C22 14.67878788 22 14.67878788 22 10 C21.34 10 20.68 10 20 10 C20 8.35 20 6.7 20 5 C14.06 5.495 14.06 5.495 8 6 C8.33 8.31 8.66 10.62 9 13 C7.02 13.99 7.02 13.99 5 15 C4.67 28.53 4.34 42.06 4 56 C3.34 56 2.68 56 2 56 C2 55.34 2 54.68 2 54 C-2.95 54.495 -2.95 54.495 -8 55 C-8 54.01 -8 53.02 -8 52 C-4.7 52 -1.4 52 2 52 C2 36.16 2 20.32 2 4 C1.34 4 0.68 4 0 4 C0 2.68 0 1.36 0 0 Z " fill="#EFEEEB" transform="translate(212,280)"/>
<path d="M0 0 C0 19.8 0 39.6 0 60 C-3.63 60 -7.26 60 -11 60 C-11.1237152 52.419494 -11.21439752 44.83957729 -11.2746582 37.25830078 C-11.2997824 34.68007163 -11.33388759 32.10191357 -11.37719727 29.52392578 C-11.43793664 25.81525114 -11.46623197 22.10751925 -11.48828125 18.3984375 C-11.51408768 17.24822113 -11.5398941 16.09800476 -11.56648254 14.91293335 C-11.56960973 5.96443665 -11.56960973 5.96443665 -8.84448242 2.22509766 C-6 0 -6 0 0 0 Z " fill="#E20612" transform="translate(500,282)"/>
<path d="M0 0 C1.98 0 3.96 0 6 0 C6 19.8 6 39.6 6 60 C2.37 60 -1.26 60 -5 60 C-5.07417261 52.54356055 -5.12861364 45.08733601 -5.16479492 37.63061523 C-5.17987863 35.09411885 -5.20034831 32.55764852 -5.22631836 30.02124023 C-5.26271881 26.37477178 -5.27973082 22.72864827 -5.29296875 19.08203125 C-5.30845261 17.94852737 -5.32393646 16.8150235 -5.33988953 15.64717102 C-5.34011612 14.58644882 -5.34034271 13.52572662 -5.34057617 12.43286133 C-5.34723801 11.50242508 -5.35389984 10.57198883 -5.36076355 9.61335754 C-4.79494864 5.51461566 -2.88229389 2.88229389 0 0 Z " fill="#E50814" transform="translate(474,282)"/>
<path d="M0 0 C1.87884057 -0.02656979 3.75753631 -0.06745447 5.63574219 -0.12304688 C8.35126394 -0.20245789 11.06400259 -0.23535395 13.78051758 -0.25878906 C15.02933968 -0.30827698 15.02933968 -0.30827698 16.3033905 -0.35876465 C21.14109752 -0.34231706 23.59990715 0.38215114 27.10400391 3.81738281 C32.03584582 9.3534426 32.03584582 9.3534426 32.39379883 13.02246094 C32.14379883 15.45996094 32.14379883 15.45996094 30.14379883 17.45996094 C27.39379883 17.95996094 27.39379883 17.95996094 24.14379883 17.45996094 C22.79997253 16.12321472 22.79997253 16.12321472 21.44921875 14.47241211 C18.86230022 11.77601764 18.21944036 11.47422504 14.29736328 10.73461914 C12.86738884 10.71415176 11.43673562 10.72426151 10.00708008 10.76074219 C9.24582321 10.75415085 8.48456635 10.74755951 7.70024109 10.74076843 C5.28468691 10.72336738 2.87172867 10.74521834 0.45629883 10.77246094 C-1.96931841 10.78376525 -4.3941742 10.78642938 -6.81977844 10.77201843 C-8.32449594 10.76463527 -9.82938989 10.77283787 -11.33390808 10.79841614 C-16.35068013 10.79526371 -16.35068013 10.79526371 -18.8515625 9.13647461 C-19.85620117 7.45996094 -19.85620117 7.45996094 -19.66870117 4.33496094 C-19.40057617 3.38621094 -19.13245117 2.43746094 -18.85620117 1.45996094 C-13.72344895 -1.10641517 -5.70874741 0.06164632 0 0 Z " fill="#1B1B1B" transform="translate(249.856201171875,270.5400390625)"/>
<path d="M0 0 C3.75521604 2.45390355 6.57167287 5.03797286 9.0546875 8.796875 C9.0546875 9.456875 9.0546875 10.116875 9.0546875 10.796875 C7.7346875 10.796875 6.4146875 10.796875 5.0546875 10.796875 C5.0546875 11.456875 5.0546875 12.116875 5.0546875 12.796875 C4.36503906 12.5803125 3.67539062 12.36375 2.96484375 12.140625 C-2.95520177 10.38653744 -8.75166323 8.67185668 -14.9453125 9.796875 C-18.25711982 11.5596862 -18.25711982 11.5596862 -20.9453125 13.796875 C-22.2644707 14.49116879 -23.59180656 15.17217995 -24.9453125 15.796875 C-24.9453125 14.146875 -24.9453125 12.496875 -24.9453125 10.796875 C-25.6053125 10.796875 -26.2653125 10.796875 -26.9453125 10.796875 C-26.9453125 10.136875 -26.9453125 9.476875 -26.9453125 8.796875 C-28.2653125 8.466875 -29.5853125 8.136875 -30.9453125 7.796875 C-29.70013285 6.66654202 -28.44894598 5.54282464 -27.1953125 4.421875 C-26.49921875 3.79539062 -25.803125 3.16890625 -25.0859375 2.5234375 C-18.45403577 -2.82565112 -7.83195517 -3.1992602 0 0 Z " fill="#E50E18" transform="translate(448.9453125,297.203125)"/>
<path d="M0 0 C8.8478866 -0.33458395 16.63373496 0.05026874 25.28125 2.1328125 C29.62348936 3.14539353 33.98223416 3.93096302 38.375 4.6875 C39.13151855 4.81874268 39.88803711 4.94998535 40.66748047 5.08520508 C42.44460078 5.39237948 44.22224285 5.69653298 46 6 C46 6.66 46 7.32 46 8 C48.64 8 51.28 8 54 8 C54 8.66 54 9.32 54 10 C46.6494521 10.10125781 39.29908342 10.17140549 31.94799805 10.21972656 C29.44630207 10.23986617 26.9446533 10.2671796 24.44311523 10.30175781 C20.85128139 10.35017103 17.26006883 10.3729455 13.66796875 10.390625 C11.98503975 10.42159271 11.98503975 10.42159271 10.26811218 10.45318604 C9.22725967 10.45348816 8.18640717 10.45379028 7.11401367 10.45410156 C5.7383448 10.46742523 5.7383448 10.46742523 4.33488464 10.48101807 C2 10 2 10 0.1608429 8.17474365 C-1.44608034 5.16430518 -0.80754744 3.23018974 0 0 Z " fill="#FCA006" transform="translate(274,294)"/>
<path d="M0 0 C0 19.8 0 39.6 0 60 C-3.63 60 -7.26 60 -11 60 C-11.1237152 52.419494 -11.21439752 44.83957729 -11.2746582 37.25830078 C-11.2997824 34.68007163 -11.33388759 32.10191357 -11.37719727 29.52392578 C-11.43793664 25.81525114 -11.46623197 22.10751925 -11.48828125 18.3984375 C-11.51408768 17.24822113 -11.5398941 16.09800476 -11.56648254 14.91293335 C-11.56960973 5.96443665 -11.56960973 5.96443665 -8.84448242 2.22509766 C-6 0 -6 0 0 0 Z M-6.53198242 3.25097656 C-10.4783533 7.64667704 -9.61746024 12.28456954 -9.48828125 17.984375 C-9.48120651 19.15510559 -9.47413177 20.32583618 -9.46684265 21.53204346 C-9.43884981 25.27201173 -9.37609721 29.01048407 -9.3125 32.75 C-9.28742368 35.28513463 -9.26460936 37.82029273 -9.24414062 40.35546875 C-9.18900684 46.57082307 -9.10532977 52.78530467 -9 59 C-7.02 59 -5.04 59 -3 59 C-3 40.19 -3 21.38 -3 2 C-4.32126932 1.92617411 -4.32126932 1.92617411 -6.53198242 3.25097656 Z " fill="#E0272D" transform="translate(500,282)"/>
<path d="M0 0 C1.98 0 3.96 0 6 0 C5.93941406 0.58491211 5.87882812 1.16982422 5.81640625 1.77246094 C5.54217704 4.4314295 5.27105748 7.09070631 5 9.75 C4.90460938 10.67039062 4.80921875 11.59078125 4.7109375 12.5390625 C4.62070312 13.42851562 4.53046875 14.31796875 4.4375 15.234375 C4.31181641 16.45979004 4.31181641 16.45979004 4.18359375 17.70996094 C4.01596798 19.80082499 4 21.90242738 4 24 C3.34 24 2.68 24 2 24 C2 22.02 2 20.04 2 18 C0.02 18 -1.96 18 -4 18 C-3.525625 17.4225 -3.05125 16.845 -2.5625 16.25 C-1.0515133 14.07417916 -0.45963849 12.57397552 0 10 C-0.66 10 -1.32 10 -2 10 C-2 9.34 -2 8.68 -2 8 C-2.66 8 -3.32 8 -4 8 C-4 7.34 -4 6.68 -4 6 C-33.04 6 -62.08 6 -92 6 C-92 5.01 -92 4.02 -92 3 C-47.45 3.495 -47.45 3.495 -2 4 C-2 3.34 -2 2.68 -2 2 C-1.34 2 -0.68 2 0 2 C0 1.34 0 0.68 0 0 Z " fill="#F2F9FB" transform="translate(368,286)"/>
<path d="M0 0 C1.47668858 0.0133035 2.95331108 0.03716415 4.4296875 0.0703125 C5.18378906 0.07933594 5.93789063 0.08835937 6.71484375 0.09765625 C8.57826004 0.1212438 10.44151343 0.15711531 12.3046875 0.1953125 C12.3046875 0.8553125 12.3046875 1.5153125 12.3046875 2.1953125 C25.19721111 6.10799632 25.19721111 6.10799632 38.3046875 9.1953125 C38.3046875 9.8553125 38.3046875 10.5153125 38.3046875 11.1953125 C32.98447011 11.24484543 27.66438774 11.28109506 22.34399414 11.30517578 C20.53505107 11.31521737 18.72612417 11.3288533 16.91723633 11.34619141 C14.31327315 11.37052082 11.70952508 11.38181411 9.10546875 11.390625 C7.89737297 11.40610886 7.89737297 11.40610886 6.66487122 11.42190552 C2.41499524 11.42274979 -0.81598693 11.16047479 -4.6953125 9.1953125 C-5.3203125 5.8203125 -5.3203125 5.8203125 -5.6953125 2.1953125 C-3.6953125 0.1953125 -3.6953125 0.1953125 0 0 Z " fill="#E95706" transform="translate(287.6953125,308.8046875)"/>
<path d="M0 0 C0.495 0.99 0.495 0.99 1 2 C1.66 2 2.32 2 3 2 C3 2.66 3 3.32 3 4 C13.23 4 23.46 4 34 4 C34 4.33 34 4.66 34 5 C25.42 5.33 16.84 5.66 8 6 C15.50224223 8.56028681 15.50224223 8.56028681 23 10 C23 10.33 23 10.66 23 11 C17.57810729 11.14494359 12.15615308 11.28723076 6.73413086 11.42724609 C4.89654746 11.47505053 3.05898154 11.52353245 1.22143555 11.57275391 C-9.85564283 11.86894863 -20.91857888 12.07653356 -32 12 C-32 11.67 -32 11.34 -32 11 C-27.545 10.505 -27.545 10.505 -23 10 C-28.94 8.515 -28.94 8.515 -35 7 C-35 6.67 -35 6.34 -35 6 C-23.12 6 -11.24 6 1 6 C1 5.34 1 4.68 1 4 C0.34 4 -0.32 4 -1 4 C-0.67 2.68 -0.34 1.36 0 0 Z " fill="#EB9018" transform="translate(325,314)"/>
<path d="M0 0 C10.89 0 21.78 0 33 0 C32.67 0.66 32.34 1.32 32 2 C23.42 2 14.84 2 6 2 C6 2.66 6 3.32 6 4 C9.3 4 12.6 4 16 4 C16 4.66 16 5.32 16 6 C9.06236942 6.05099583 2.12478776 6.08585714 -4.81298828 6.10986328 C-7.16977749 6.11987842 -9.52655441 6.13349442 -11.88330078 6.15087891 C-15.28421068 6.17532519 -18.68495531 6.18652831 -22.0859375 6.1953125 C-23.64905167 6.21079636 -23.64905167 6.21079636 -25.2437439 6.22659302 C-31.73004824 6.22757258 -37.69572903 5.53497658 -44 4 C-44 3.34 -44 2.68 -44 2 C-29.48 2 -14.96 2 0 2 C0 1.34 0 0.68 0 0 Z " fill="#FAD006" transform="translate(332,302)"/>
<path d="M0 0 C5.0858768 0.65624217 9.41288446 2.83597872 14 5 C14.75539063 5.34546875 15.51078125 5.6909375 16.2890625 6.046875 C16.99804688 6.38203125 17.70703125 6.7171875 18.4375 7.0625 C19.07558594 7.36285156 19.71367187 7.66320312 20.37109375 7.97265625 C22 9 22 9 24 12 C24.52483239 14.74017754 24.54772019 17.26139905 24 20 C21.24822867 22.66838432 19.27708174 22.96041689 15.5 23.5 C11.08421321 22.86917332 9.68044649 21.492703 7 18 C7 17.01 7 16.02 7 15 C3.04 15 -0.92 15 -5 15 C-5 14.67 -5 14.34 -5 14 C-0.05 14 4.9 14 10 14 C10 11.69 10 9.38 10 7 C8.68 6.67 7.36 6.34 6 6 C6 5.34 6 4.68 6 4 C5.34 4 4.68 4 4 4 C4 3.34 4 2.68 4 2 C2.68 2 1.36 2 0 2 C0 1.34 0 0.68 0 0 Z " fill="#EEE8E9" transform="translate(374,310)"/>
<path d="M0 0 C0.66 4.62 1.32 9.24 2 14 C-9.22 14 -20.44 14 -32 14 C-32 13.34 -32 12.68 -32 12 C-31.34 12 -30.68 12 -30 12 C-30 10.68 -30 9.36 -30 8 C-27.04491553 7.16628641 -24.29890387 6.82110466 -21.234375 6.68359375 C-20.34492188 6.64169922 -19.45546875 6.59980469 -18.5390625 6.55664062 C-17.15847656 6.49766602 -17.15847656 6.49766602 -15.75 6.4375 C-14.81414062 6.39431641 -13.87828125 6.35113281 -12.9140625 6.30664062 C-10.60951359 6.2008195 -8.30486161 6.09873443 -6 6 C-6 4.68 -6 3.36 -6 2 C-3 0 -3 0 0 0 Z " fill="#E9070F" transform="translate(458,310)"/>
<path d="M0 0 C0.66 0.33 1.32 0.66 2 1 C1.02885254 2.12172607 1.02885254 2.12172607 0.03808594 3.26611328 C-3.09719153 8.00324005 -2.60314615 13.24359112 -2.609375 18.7421875 C-2.62591125 19.86569611 -2.64244751 20.98920471 -2.65948486 22.14675903 C-2.70793415 25.72289515 -2.72932998 29.29860606 -2.75 32.875 C-2.77816209 35.30470886 -2.80808985 37.73439793 -2.83984375 40.1640625 C-2.91369246 46.10929789 -2.96535307 52.05441385 -3 58 C-0.69 58 1.62 58 4 58 C4 38.86 4 19.72 4 0 C4.66 0 5.32 0 6 0 C6 19.8 6 39.6 6 60 C2.37 60 -1.26 60 -5 60 C-5.07417261 52.54356055 -5.12861364 45.08733601 -5.16479492 37.63061523 C-5.17987863 35.09411885 -5.20034831 32.55764852 -5.22631836 30.02124023 C-5.26271881 26.37477178 -5.27973082 22.72864827 -5.29296875 19.08203125 C-5.30845261 17.94852737 -5.32393646 16.8150235 -5.33988953 15.64717102 C-5.34011612 14.58644882 -5.34034271 13.52572662 -5.34057617 12.43286133 C-5.34723801 11.50242508 -5.35389984 10.57198883 -5.36076355 9.61335754 C-4.79494864 5.51461566 -2.88229389 2.88229389 0 0 Z " fill="#E12833" transform="translate(474,282)"/>
<path d="M0 0 C1.32 0 2.64 0 4 0 C4 0.66 4 1.32 4 2 C5.32 2 6.64 2 8 2 C8 1.34 8 0.68 8 0 C8.66 0 9.32 0 10 0 C10 0.66 10 1.32 10 2 C24.19 2 38.38 2 53 2 C52.67 2.66 52.34 3.32 52 4 C36.82 4 21.64 4 6 4 C6 4.66 6 5.32 6 6 C5.34 6 4.68 6 4 6 C4 7.32 4 8.64 4 10 C4.66 10 5.32 10 6 10 C6 9.34 6 8.68 6 8 C6.66 8 7.32 8 8 8 C8.33 9.65 8.66 11.3 9 13 C7.02 13.99 7.02 13.99 5 15 C4.67 28.53 4.34 42.06 4 56 C3.34 56 2.68 56 2 56 C2 55.34 2 54.68 2 54 C-2.95 54.495 -2.95 54.495 -8 55 C-8 54.01 -8 53.02 -8 52 C-4.7 52 -1.4 52 2 52 C2 36.16 2 20.32 2 4 C1.34 4 0.68 4 0 4 C0 2.68 0 1.36 0 0 Z " fill="#E9ECF5" transform="translate(212,280)"/>
<path d="M0 0 C3.63 0 7.26 0 11 0 C8.3904552 6.52386201 4.66096293 10.09127963 -1.8125 12.875 C-7.37322901 14.7213358 -13.45058009 14.84980664 -19 13 C-18.67 12.01 -18.34 11.02 -18 10 C-17.34 10 -16.68 10 -16 10 C-16 9.34 -16 8.68 -16 8 C-16.66 8 -17.32 8 -18 8 C-18 7.34 -18 6.68 -18 6 C-12.12116651 3.38718512 -6.29268272 3.81671798 0 4 C0 2.68 0 1.36 0 0 Z " fill="#E60911" transform="translate(448,330)"/>
<path d="M0 0 C3.96 0 7.92 0 12 0 C12 0.66 12 1.32 12 2 C12.66 2 13.32 2 14 2 C14 2.66 14 3.32 14 4 C14.66 4 15.32 4 16 4 C16 6.64 16 9.28 16 12 C15.34 12 14.68 12 14 12 C14 12.66 14 13.32 14 14 C10.78817851 15.90608098 8.46117397 16.22266247 4.75 16.125 C3.1825 16.08375 1.615 16.0425 0 16 C0 10.72 0 5.44 0 0 Z " fill="#DCDEE2" transform="translate(138,304)"/>
<path d="M0 0 C18.48 0 36.96 0 56 0 C56 0.33 56 0.66 56 1 C41.48 1.33 26.96 1.66 12 2 C24.01079877 4.46532143 24.01079877 4.46532143 36 6 C36 6.66 36 7.32 36 8 C41.445 8.495 41.445 8.495 47 9 C47 9.33 47 9.66 47 10 C40.73 10 34.46 10 28 10 C28 9.34 28 8.68 28 8 C27.01 7.67 26.02 7.34 25 7 C24.67 7.99 24.34 8.98 24 10 C9.04044806 7.2209528 9.04044806 7.2209528 1.875 4.62890625 C-0.70628276 3.76310099 -3.30533846 3.34546943 -6 3 C-6 2.67 -6 2.34 -6 2 C-4.02 2 -2.04 2 0 2 C0 1.34 0 0.68 0 0 Z " fill="#F69209" transform="translate(300,308)"/>
<path d="M0 0 C3.74225404 1.1566967 5.28964665 1.79776291 7.4375 5.0625 C8 8.5 8 8.5 7.4375 12.0625 C4.98749553 15.44927089 3.57357554 16.84948584 -0.5625 17.625 C-4.4050303 16.90452557 -6.02017292 16.05347304 -8.5625 13.0625 C-9.35851977 8.04757544 -9.34092337 6.21834076 -6.5 2 C-3.5625 0.0625 -3.5625 0.0625 0 0 Z " fill="#1C1C1C" transform="translate(308.5625,338.9375)"/>
<path d="M0 0 C2.43954416 1.77421393 2.82014743 2.99117182 3.33984375 5.90625 C3.63816449 9.80624793 3.47080596 11.44611064 0.875 14.5 C-2.53285587 16.27801176 -4.21545532 16.70960213 -8 16 C-10.875 13.9375 -10.875 13.9375 -13 11 C-13.6198676 7.07417186 -13.58925458 4.99917081 -11.5625 1.5625 C-7.77373482 -0.74772267 -4.32310656 -0.78601937 0 0 Z " fill="#1B1C1B" transform="translate(343,340)"/>
<path d="M0 0 C11.22 0 22.44 0 34 0 C34 0.66 34 1.32 34 2 C34.66 2 35.32 2 36 2 C36 3.32 36 4.64 36 6 C34.68 6.33 33.36 6.66 32 7 C32 5.68 32 4.36 32 3 C27.71 3 23.42 3 19 3 C19 3.66 19 4.32 19 5 C15.51079626 7.32613583 14.05047454 7.24247293 9.9375 7.1875 C8.34228516 7.17783203 8.34228516 7.17783203 6.71484375 7.16796875 C4 7 4 7 2 6 C2 5.34 2 4.68 2 4 C1.34 4 0.68 4 0 4 C0 2.68 0 1.36 0 0 Z " fill="#E4E3E3" transform="translate(428,326)"/>
<path d="M0 0 C0.33 0.99 0.66 1.98 1 3 C3.01508358 3.73323796 3.01508358 3.73323796 5 4 C5 4.99 5 5.98 5 7 C4.34 7 3.68 7 3 7 C3 7.66 3 8.32 3 9 C4.32 8.34 5.64 7.68 7 7 C7.39241223 21.49745187 7.39241223 21.49745187 5 27 C2.875 28.9375 2.875 28.9375 1 30 C0.34 29.67 -0.32 29.34 -1 29 C-0.67 28.67 -0.34 28.34 0 28 C0.36760731 25.67182036 0.70241581 23.3381615 1 21 C0.34 21 -0.32 21 -1 21 C-1.06058594 20.32453125 -1.12117188 19.6490625 -1.18359375 18.953125 C-1.26738281 18.06109375 -1.35117187 17.1690625 -1.4375 16.25 C-1.51871094 15.36828125 -1.59992188 14.4865625 -1.68359375 13.578125 C-1.9205332 11.05336203 -1.9205332 11.05336203 -2.625 8.90625 C-3.29398592 5.50557156 -1.46060133 3.03805076 0 0 Z " fill="#E30912" transform="translate(399,311)"/>
<path d="M0 0 C2.78334553 1.59915852 5.05836778 3.43404874 7 6 C7 6.99 7 7.98 7 9 C-1.25 9 -9.5 9 -18 9 C-14.16837414 1.33674828 -8.30158052 -1.46021286 0 0 Z " fill="#E0E2E1" transform="translate(443,306)"/>
<path d="M0 0 C0.66 0 1.32 0 2 0 C2 0.66 2 1.32 2 2 C2.66 2 3.32 2 4 2 C4 2.66 4 3.32 4 4 C4.99 4.33 5.98 4.66 7 5 C7.33 5.99 7.66 6.98 8 8 C8.66 8 9.32 8 10 8 C10 8.66 10 9.32 10 10 C10.66 10 11.32 10 12 10 C12 11.98 12 13.96 12 16 C12.66 16 13.32 16 14 16 C14.33 15.01 14.66 14.02 15 13 C15.14695312 13.8353125 15.14695312 13.8353125 15.296875 14.6875 C16.26746306 19.64084595 17.6447571 23.76056279 20.09765625 28.17578125 C21.04786818 30.09677247 21.55241438 31.90972903 22 34 C21.34 34 20.68 34 20 34 C20 33.34 20 32.68 20 32 C19.34 32 18.68 32 18 32 C18 31.34 18 30.68 18 30 C15.03 30.66 12.06 31.32 9 32 C9.165 31.236875 9.33 30.47375 9.5 29.6875 C10.29477159 23.82605952 11.06575653 17.72360001 8.875 12.125 C7.27056951 10.30664544 5.76781451 8.98331137 3.875 7.5 C1 5 1 5 0.125 2.1875 C0.08375 1.465625 0.0425 0.74375 0 0 Z " fill="#EAE5E2" transform="translate(398,304)"/>
<path d="M0 0 C3.3 0 6.6 0 10 0 C10 0.66 10 1.32 10 2 C10.66 2 11.32 2 12 2 C12 5.3 12 8.6 12 12 C10.68 12 9.36 12 8 12 C8 12.66 8 13.32 8 14 C5.36 14 2.72 14 0 14 C0 9.38 0 4.76 0 0 Z " fill="#DED6D0" transform="translate(138,280)"/>
<path d="M0 0 C0.33 0 0.66 0 1 0 C1.02505615 0.75619629 1.0501123 1.51239258 1.07592773 2.29150391 C1.19236886 5.73615459 1.31487662 9.18056408 1.4375 12.625 C1.47681641 13.81480469 1.51613281 15.00460937 1.55664062 16.23046875 C1.61948242 17.96103516 1.61948242 17.96103516 1.68359375 19.7265625 C1.72025146 20.78439941 1.75690918 21.84223633 1.79467773 22.93212891 C1.9470189 26.04735501 1.9470189 26.04735501 2.58227539 29.26708984 C3 32 3 32 2 34 C0.68 34 -0.64 34 -2 34 C-2 32.02 -2 30.04 -2 28 C-3.32 28 -4.64 28 -6 28 C-6.33 22.72 -6.66 17.44 -7 12 C-6.01 12 -5.02 12 -4 12 C-4 14.64 -4 17.28 -4 20 C-3.34 20 -2.68 20 -2 20 C-2 21.32 -2 22.64 -2 24 C-1.34 24 -0.68 24 0 24 C0 16.08 0 8.16 0 0 Z " fill="#F1E2D7" transform="translate(172,292)"/>
<path d="M0 0 C0.495 1.98 0.495 1.98 1 4 C1.66 4 2.32 4 3 4 C1.6340819 9.58784676 1.6340819 9.58784676 -1.5 11.625 C-2.325 12.07875 -3.15 12.5325 -4 13 C-5.32793606 15.06700655 -5.32793606 15.06700655 -6 17 C-6.66 16.34 -7.32 15.68 -8 15 C-8.7425 15.515625 -9.485 16.03125 -10.25 16.5625 C-13.46899448 18.24515621 -13.71063119 17.93124194 -17 17 C-18.7316239 16.8562677 -20.46698333 16.75425068 -22.203125 16.68359375 C-23.1828125 16.64169922 -24.1625 16.59980469 -25.171875 16.55664062 C-26.18765625 16.51732422 -27.2034375 16.47800781 -28.25 16.4375 C-29.28125 16.39431641 -30.3125 16.35113281 -31.375 16.30664062 C-33.9165387 16.20074318 -36.45817196 16.09866557 -39 16 C-39 15.67 -39 15.34 -39 15 C-38.36497559 14.98018066 -37.72995117 14.96036133 -37.07568359 14.93994141 C-34.17506674 14.84418878 -31.27512095 14.73471454 -28.375 14.625 C-27.37597656 14.5940625 -26.37695312 14.563125 -25.34765625 14.53125 C-20.16633099 14.32536953 -15.89236773 13.85157302 -11 12 C-9.68 12 -8.36 12 -7 12 C-7 11.34 -7 10.68 -7 10 C-6.34 10 -5.68 10 -5 10 C-5 9.34 -5 8.68 -5 8 C-4.34 8 -3.68 8 -3 8 C-3 7.34 -3 6.68 -3 6 C-2.34 6 -1.68 6 -1 6 C-0.67 4.02 -0.34 2.04 0 0 Z " fill="#E4D7CC" transform="translate(165,316)"/>
<path d="M0 0 C5.94479629 -0.07401579 11.88932593 -0.12853813 17.83447266 -0.16479492 C19.85795766 -0.17990526 21.8814098 -0.20039437 23.90478516 -0.22631836 C26.80900165 -0.26260328 29.71278615 -0.27970355 32.6171875 -0.29296875 C33.52556366 -0.30845261 34.43393982 -0.32393646 35.36984253 -0.33988953 C36.21056305 -0.34011612 37.05128357 -0.34034271 37.91748047 -0.34057617 C39.03000687 -0.35056892 39.03000687 -0.35056892 40.16500854 -0.36076355 C40.77055573 -0.24171158 41.37610291 -0.12265961 42 0 C42.66 0.99 43.32 1.98 44 3 C33.44 3 22.88 3 12 3 C12 2.67 12 2.34 12 2 C8.04 1.67 4.08 1.34 0 1 C0 0.67 0 0.34 0 0 Z " fill="#D62304" transform="translate(308,325)"/>
<path d="M0 0 C2.34290892 2.48434437 2.97982934 3.77731593 3.29296875 7.234375 C3.25816406 8.39453125 3.22335937 9.5546875 3.1875 10.75 C3.14689453 12.50570313 3.14689453 12.50570313 3.10546875 14.296875 C3.07066406 15.18890625 3.03585937 16.0809375 3 17 C0.31907309 14.31907309 0.61329743 12.60832637 0.375 8.875 C0.30023438 7.77929688 0.22546875 6.68359375 0.1484375 5.5546875 C0.09945312 4.71164062 0.05046875 3.86859375 0 3 C-1.98 3.66 -3.96 4.32 -6 5 C-6 6.32 -6 7.64 -6 9 C-14.58 9 -23.16 9 -32 9 C-32 8.67 -32 8.34 -32 8 C-24.08 8 -16.16 8 -8 8 C-8.99 6.35 -9.98 4.7 -11 3 C-11.33 2.34 -11.66 1.68 -12 1 C-10.02 1 -8.04 1 -6 1 C-6 1.66 -6 2.32 -6 3 C-5.34 3 -4.68 3 -4 3 C-4 2.34 -4 1.68 -4 1 C-2.68 0.67 -1.36 0.34 0 0 Z " fill="#CB262B" transform="translate(458,307)"/>
<path d="M0 0 C0.33 0.99 0.66 1.98 1 3 C4.3 3 7.6 3 11 3 C11 3.66 11 4.32 11 5 C7.7 5 4.4 5 1 5 C0.34 6.32 -0.32 7.64 -1 9 C-1.67546875 8.91621094 -2.3509375 8.83242188 -3.046875 8.74609375 C-4.38492188 8.59333984 -4.38492188 8.59333984 -5.75 8.4375 C-6.63171875 8.33308594 -7.5134375 8.22867187 -8.421875 8.12109375 C-10.88432451 8.00543324 -12.66538064 8.26361305 -15 9 C-15 8.34 -15 7.68 -15 7 C-16.32 7 -17.64 7 -19 7 C-19 6.34 -19 5.68 -19 5 C-17.57107422 4.96132813 -17.57107422 4.96132813 -16.11328125 4.921875 C-14.85902344 4.86515625 -13.60476562 4.8084375 -12.3125 4.75 C-11.07113281 4.70359375 -9.82976562 4.6571875 -8.55078125 4.609375 C-4.58408325 3.92862155 -2.87295664 2.74661246 0 0 Z " fill="#EAD9C6" transform="translate(203,327)"/>
<path d="M0 0 C18.48 0 36.96 0 56 0 C56 0.33 56 0.66 56 1 C54.865625 1.12375 53.73125 1.2475 52.5625 1.375 C51.386875 1.58125 50.21125 1.7875 49 2 C48.67 2.66 48.34 3.32 48 4 C45.36 3.67 42.72 3.34 40 3 C40 2.34 40 1.68 40 1 C31.42 1 22.84 1 14 1 C14 1.66 14 2.32 14 3 C12.68 3 11.36 3 10 3 C10 2.34 10 1.68 10 1 C6.7 1 3.4 1 0 1 C0 0.67 0 0.34 0 0 Z " fill="#E7E9E8" transform="translate(296,336)"/>
<path d="M0 0 C0.98291016 0.00322266 1.96582031 0.00644531 2.97851562 0.00976562 C4.51475586 0.02233398 4.51475586 0.02233398 6.08203125 0.03515625 C7.11779297 0.03966797 8.15355469 0.04417969 9.22070312 0.04882812 C11.77870391 0.06061615 14.33658858 0.0770711 16.89453125 0.09765625 C16.89453125 1.08765625 16.89453125 2.07765625 16.89453125 3.09765625 C8.64453125 3.09765625 0.39453125 3.09765625 -8.10546875 3.09765625 C-8.10546875 2.43765625 -8.10546875 1.77765625 -8.10546875 1.09765625 C-5.10530963 0.09760321 -3.13123119 -0.0180996 0 0 Z " fill="#E7D0D5" transform="translate(433.10546875,311.90234375)"/>
<path d="M0 0 C0.66 0.66 1.32 1.32 2 2 C-0.52475462 3.26237731 -2.31200466 3.09856404 -5.125 3.0625 C-6.03507812 3.05347656 -6.94515625 3.04445313 -7.8828125 3.03515625 C-8.58148438 3.02355469 -9.28015625 3.01195312 -10 3 C-10 5.31 -10 7.62 -10 10 C-10.66 10 -11.32 10 -12 10 C-12 8.68 -12 7.36 -12 6 C-12.66 6 -13.32 6 -14 6 C-14 6.66 -14 7.32 -14 8 C-14.99 7.67 -15.98 7.34 -17 7 C-15.9730655 3.69098884 -14.96077893 2.9780362 -11.875 1.25 C-7.79447871 -0.31548301 -4.3391666 -0.36772598 0 0 Z " fill="#DF242A" transform="translate(394,280)"/>
<path d="M0 0 C10.23 0 20.46 0 31 0 C30.67 0.66 30.34 1.32 30 2 C21.42 2 12.84 2 4 2 C4 2.66 4 3.32 4 4 C3.34 4 2.68 4 2 4 C2 3.34 2 2.68 2 2 C1.34 2 0.68 2 0 2 C0 1.34 0 0.68 0 0 Z " fill="#F5CE53" transform="translate(334,302)"/>
<path d="M0 0 C1.98 0 3.96 0 6 0 C6 5.28 6 10.56 6 16 C5.34 16 4.68 16 4 16 C4 14.02 4 12.04 4 10 C2.02 10 0.04 10 -2 10 C-1.525625 9.4225 -1.05125 8.845 -0.5625 8.25 C0.9484867 6.07417916 1.54036151 4.57397552 2 2 C1.34 2 0.68 2 0 2 C0 1.34 0 0.68 0 0 Z " fill="#E8EFE9" transform="translate(366,294)"/>
<path d="M0 0 C0.66 0.33 1.32 0.66 2 1 C3.94541416 6.83624248 3.80832343 13.01287158 1.5 18.6875 C1.005 19.450625 0.51 20.21375 0 21 C-0.66 20.67 -1.32 20.34 -2 20 C-1.83628906 19.46890625 -1.67257812 18.9378125 -1.50390625 18.390625 C-0.88643623 15.46123236 -0.90498075 12.74177064 -0.9375 9.75 C-0.94652344 8.67234375 -0.95554687 7.5946875 -0.96484375 6.484375 C-0.97644531 5.66453125 -0.98804688 4.8446875 -1 4 C-1.99 4.33 -2.98 4.66 -4 5 C-4 4.34 -4 3.68 -4 3 C-3.34 3 -2.68 3 -2 3 C-2 2.34 -2 1.68 -2 1 C-1.34 0.67 -0.68 0.34 0 0 Z " fill="#DF282C" transform="translate(406,315)"/>
<path d="M0 0 C1.32 0 2.64 0 4 0 C4 1.32 4 2.64 4 4 C4.66 4 5.32 4 6 4 C6 7.3 6 10.6 6 14 C5.34 14 4.68 14 4 14 C4 12.68 4 11.36 4 10 C2.68 10 1.36 10 0 10 C0 6.7 0 3.4 0 0 Z " fill="#F79613" transform="translate(160,302)"/>
<path d="M0 0 C2.64 0 5.28 0 8 0 C4.62966539 5.515093 0.03953159 7.40611506 -6 9 C-11.05722814 9.57776513 -14.69120003 9.87253331 -19 7 C-17.6078125 7.0928125 -17.6078125 7.0928125 -16.1875 7.1875 C-11.78522553 7.20543187 -7.84228737 5.9976411 -3.6484375 4.75390625 C-1.11202264 4.03188845 1.4084332 3.4818256 4 3 C4 2.34 4 1.68 4 1 C2.68 0.67 1.36 0.34 0 0 Z " fill="#EA141D" transform="translate(448,335)"/>
<path d="M0 0 C5.61 0 11.22 0 17 0 C16.67 1.32 16.34 2.64 16 4 C10.26157749 4.20413361 5.39460953 4.27141454 0 2 C0 1.34 0 0.68 0 0 Z " fill="#F3EFE7" transform="translate(336,320)"/>
<path d="M0 0 C3.82919612 1.50432705 5.78089547 3.55656194 8 7 C8.75 10.8125 8.75 10.8125 9 14 C5.37 14 1.74 14 -2 14 C-2.66 12.35 -3.32 10.7 -4 9 C-3.01 9.33 -2.02 9.66 -1 10 C-1 10.66 -1 11.32 -1 12 C1.64 12 4.28 12 7 12 C6.40606618 10.70359622 5.79942011 9.41301161 5.1875 8.125 C4.68283203 7.04605469 4.68283203 7.04605469 4.16796875 5.9453125 C3.00532903 3.69457194 3.00532903 3.69457194 0 2 C0 1.34 0 0.68 0 0 Z " fill="#D72328" transform="translate(398,283)"/>
<path d="M0 0 C8.91 1.98 8.91 1.98 18 4 C18 4.33 18 4.66 18 5 C17.09636719 5.06058594 16.19273437 5.12117188 15.26171875 5.18359375 C14.08222656 5.26738281 12.90273438 5.35117187 11.6875 5.4375 C9.92986328 5.55931641 9.92986328 5.55931641 8.13671875 5.68359375 C4.97409042 5.8867371 4.97409042 5.8867371 2 7 C1.34 6.67 0.68 6.34 0 6 C0 5.34 0 4.68 0 4 C1.32 4 2.64 4 4 4 C4 3.34 4 2.68 4 2 C2.68 2 1.36 2 0 2 C0 1.34 0 0.68 0 0 Z " fill="#FBEEEA" transform="translate(288,320)"/>
<path d="M0 0 C4.29 0 8.58 0 13 0 C13 0.99 13 1.98 13 3 C10.36 3 7.72 3 5 3 C5 4.32 5 5.64 5 7 C4.34 7 3.68 7 3 7 C3 6.34 3 5.68 3 5 C2.34 5 1.68 5 1 5 C0.67 3.35 0.34 1.7 0 0 Z " fill="#EE9725" transform="translate(219,285)"/>
<path d="M0 0 C0.66 0 1.32 0 2 0 C1.47731534 2.76276177 0.89130413 5.3260876 0 8 C0.66 8 1.32 8 2 8 C2 8.66 2 9.32 2 10 C1.01 10.33 0.02 10.66 -1 11 C-0.67 11.99 -0.34 12.98 0 14 C-1.32 14 -2.64 14 -4 14 C-4.56561146 8.34388537 -2.71391278 4.77357872 0 0 Z " fill="#ECEFF1" transform="translate(246,330)"/>
<path d="M0 0 C0 2 0 2 -1.75 4.1875 C-2.86375 5.0846875 -2.86375 5.0846875 -4 6 C-5.81542969 5.63305664 -5.81542969 5.63305664 -8 5 C-9.7316239 4.8562677 -11.46698333 4.75425068 -13.203125 4.68359375 C-14.1828125 4.64169922 -15.1625 4.59980469 -16.171875 4.55664062 C-17.18765625 4.51732422 -18.2034375 4.47800781 -19.25 4.4375 C-20.28125 4.39431641 -21.3125 4.35113281 -22.375 4.30664062 C-24.9165387 4.20074318 -27.45817196 4.09866557 -30 4 C-30 3.67 -30 3.34 -30 3 C-29.36497559 2.98018066 -28.72995117 2.96036133 -28.07568359 2.93994141 C-25.17506674 2.84418878 -22.27512095 2.73471454 -19.375 2.625 C-18.37597656 2.5940625 -17.37695312 2.563125 -16.34765625 2.53125 C-10.77357888 2.30976348 -5.29438545 0 0 0 Z " fill="#F0D4BA" transform="translate(156,328)"/>
<path d="M0 0 C3.10468986 2.54020079 3.98485936 5.17370067 5 9 C5 10.32 5 11.64 5 13 C3.68 13 2.36 13 1 13 C1 12.34 1 11.68 1 11 C0.34 11 -0.32 11 -1 11 C-1 10.34 -1 9.68 -1 9 C-0.34 9 0.32 9 1 9 C1 7.68 1 6.36 1 5 C0.34 5 -0.32 5 -1 5 C-0.67 3.35 -0.34 1.7 0 0 Z " fill="#ECEAE6" transform="translate(227,307)"/>
<path d="M0 0 C0.66 0 1.32 0 2 0 C2 0.66 2 1.32 2 2 C2.66 2 3.32 2 4 2 C4 1.34 4 0.68 4 0 C5.32 0 6.64 0 8 0 C8 0.66 8 1.32 8 2 C6.01399663 3.3540932 4.01182457 4.68457624 2 6 C1.2575 6.7425 0.515 7.485 -0.25 8.25 C-0.8275 8.8275 -1.405 9.405 -2 10 C-2.66 10 -3.32 10 -4 10 C-4 8.68 -4 7.36 -4 6 C-3.34 6 -2.68 6 -2 6 C-2 5.34 -2 4.68 -2 4 C-1.34 4 -0.68 4 0 4 C0 2.68 0 1.36 0 0 Z " fill="#E5E1E1" transform="translate(420,296)"/>
<path d="M0 0 C1.98 0 3.96 0 6 0 C5.34 3.3 4.68 6.6 4 10 C2.68 10 1.36 10 0 10 C0 6.7 0 3.4 0 0 Z " fill="#DAE0EC" transform="translate(138,282)"/>
<path d="M0 0 C0.99 0 1.98 0 3 0 C3 1.98 3 3.96 3 6 C4.32 6 5.64 6 7 6 C7 6.66 7 7.32 7 8 C8.98 8 10.96 8 13 8 C13 8.66 13 9.32 13 10 C10.36 10 7.72 10 5 10 C5 9.34 5 8.68 5 8 C3.68 8 2.36 8 1 8 C0.67 5.36 0.34 2.72 0 0 Z " fill="#E4DBD5" transform="translate(185,312)"/>
<path d="M0 0 C2.64 0 5.28 0 8 0 C7.01 2.97 6.02 5.94 5 9 C4.34 9 3.68 9 3 9 C2.01 6.03 1.02 3.06 0 0 Z " fill="#EEE6E0" transform="translate(238,304)"/>
<path d="M0 0 C4.95 0 9.9 0 15 0 C15.33 1.32 15.66 2.64 16 4 C14.02 4 12.04 4 10 4 C10 3.34 10 2.68 10 2 C6.7 2 3.4 2 0 2 C0 1.34 0 0.68 0 0 Z " fill="#EFF1DF" transform="translate(338,304)"/>
<path d="M0 0 C1.32 0 2.64 0 4 0 C4 0.66 4 1.32 4 2 C5.32 2 6.64 2 8 2 C8 1.34 8 0.68 8 0 C8.66 0 9.32 0 10 0 C10 0.66 10 1.32 10 2 C10.66 2 11.32 2 12 2 C11.67 2.99 11.34 3.98 11 5 C7.9375 6.1875 7.9375 6.1875 5 7 C5 5.68 5 4.36 5 3 C3.35 3.33 1.7 3.66 0 4 C0 2.68 0 1.36 0 0 Z " fill="#ECE3DC" transform="translate(180,282)"/>
<path d="M0 0 C9.57 0 19.14 0 29 0 C29 0.33 29 0.66 29 1 C20.42 1.33 11.84 1.66 3 2 C3.99 2.66 4.98 3.32 6 4 C4.02 4 2.04 4 0 4 C0 2.68 0 1.36 0 0 Z " fill="#D3864F" transform="translate(330,318)"/>
<path d="M0 0 C5.28 0 10.56 0 16 0 C16 0.66 16 1.32 16 2 C15.07767578 2.09087891 15.07767578 2.09087891 14.13671875 2.18359375 C13.32847656 2.26738281 12.52023438 2.35117187 11.6875 2.4375 C10.88699219 2.51871094 10.08648437 2.59992188 9.26171875 2.68359375 C6.83912821 2.95265693 6.83912821 2.95265693 4 4 C4 3.34 4 2.68 4 2 C2.68 2 1.36 2 0 2 C0 1.34 0 0.68 0 0 Z " fill="#E4E6ED" transform="translate(184,332)"/>
<path d="M0 0 C5.53846154 -0.36923077 5.53846154 -0.36923077 7.875 1.5 C8.24625 1.995 8.6175 2.49 9 3 C5.91701949 4.02766017 3.66869574 4.16598738 0.4375 4.1875 C-1.01849609 4.20876953 -1.01849609 4.20876953 -2.50390625 4.23046875 C-5 4 -5 4 -7 2 C-4.69 2 -2.38 2 0 2 C0 1.34 0 0.68 0 0 Z " fill="#DE2F33" transform="translate(388,340)"/>
<path d="M0 0 C3.63 0 7.26 0 11 0 C11.45375 0.969375 11.9075 1.93875 12.375 2.9375 C13.65786221 6.07079582 13.65786221 6.07079582 16 7 C17.37342831 7.0689472 18.75002102 7.08467708 20.125 7.0625 C22.043125 7.0315625 22.043125 7.0315625 24 7 C24 7.66 24 8.32 24 9 C14.93425606 9.62283737 14.93425606 9.62283737 11.375 7.25 C10 5 10 5 10 1 C6.7 1 3.4 1 0 1 C0 0.67 0 0.34 0 0 Z " fill="#C64247" transform="translate(370,325)"/>
<path d="M0 0 C4.29 0 8.58 0 13 0 C12.67 0.66 12.34 1.32 12 2 C6.555 1.505 6.555 1.505 1 1 C1 2.32 1 3.64 1 5 C-3.29 5 -7.58 5 -12 5 C-12 4.67 -12 4.34 -12 4 C-11.07767578 3.90912109 -11.07767578 3.90912109 -10.13671875 3.81640625 C-9.32847656 3.73261719 -8.52023437 3.64882813 -7.6875 3.5625 C-6.48673828 3.44068359 -6.48673828 3.44068359 -5.26171875 3.31640625 C-2.83912821 3.04734307 -2.83912821 3.04734307 0 2 C0 1.34 0 0.68 0 0 Z " fill="#BE5656" transform="translate(447,329)"/>
<path d="M0 0 C0.99 0 1.98 0 3 0 C3 5.28 3 10.56 3 16 C2.34 16 1.68 16 1 16 C0.67 10.72 0.34 5.44 0 0 Z " fill="#DBE5EA" transform="translate(165,304)"/>
<path d="M0 0 C0.99 0.33 1.98 0.66 3 1 C2.01 4.63 1.02 8.26 0 12 C-0.99 12 -1.98 12 -3 12 C-2.01 8.04 -1.02 4.08 0 0 Z " fill="#EFEFED" transform="translate(252,314)"/>
<path d="M0 0 C0.66 1.32 1.32 2.64 2 4 C2.66 4 3.32 4 4 4 C3.125 9.75 3.125 9.75 2 12 C1.34 12 0.68 12 0 12 C0 8.04 0 4.08 0 0 Z " fill="#E8E4E1" transform="translate(232,320)"/>
<path d="M0 0 C5.28 0 10.56 0 16 0 C16 0.33 16 0.66 16 1 C14.95199219 1.13277344 13.90398437 1.26554687 12.82421875 1.40234375 C11.44529222 1.58057235 10.06638707 1.75896641 8.6875 1.9375 C7.65206055 2.06801758 7.65206055 2.06801758 6.59570312 2.20117188 C3.59857712 2.59210135 0.87549881 3.0415004 -2 4 C-1.34 2.68 -0.68 1.36 0 0 Z " fill="#DC6A32" transform="translate(284,309)"/>
<path d="M0 0 C0.99 0.33 1.98 0.66 3 1 C3 5.29 3 9.58 3 14 C0.31907309 11.31907309 0.61329743 9.60832637 0.375 5.875 C0.30023438 4.77929688 0.22546875 3.68359375 0.1484375 2.5546875 C0.09945313 1.71164062 0.05046875 0.86859375 0 0 Z " fill="#D92326" transform="translate(458,310)"/>
<path d="M0 0 C1.32 0 2.64 0 4 0 C4 0.66 4 1.32 4 2 C5.32 2 6.64 2 8 2 C8 2.66 8 3.32 8 4 C6.68 4 5.36 4 4 4 C4 4.66 4 5.32 4 6 C2.35 5.67 0.7 5.34 -1 5 C-0.67 3.35 -0.34 1.7 0 0 Z " fill="#E7070F" transform="translate(450,304)"/>
<path d="M0 0 C1.32 0 2.64 0 4 0 C3.39816251 2.02045442 2.72693904 4.02111039 2 6 C1.01 6.495 1.01 6.495 0 7 C-0.33 6.34 -0.66 5.68 -1 5 C-2.32 5.33 -3.64 5.66 -5 6 C-4.67 5.34 -4.34 4.68 -4 4 C-3.34 4 -2.68 4 -2 4 C-2 3.34 -2 2.68 -2 2 C-1.34 2 -0.68 2 0 2 C0 1.34 0 0.68 0 0 Z " fill="#DFDCE6" transform="translate(158,326)"/>
<path d="M0 0 C1.98 0 3.96 0 6 0 C6 0.66 6 1.32 6 2 C5.34 2 4.68 2 4 2 C4 2.66 4 3.32 4 4 C1.36 4 -1.28 4 -4 4 C-4 3.34 -4 2.68 -4 2 C-2.68 2 -1.36 2 0 2 C0 1.34 0 0.68 0 0 Z " fill="#DFCDC6" transform="translate(142,290)"/>
<path d="M0 0 C1.98 0.99 1.98 0.99 4 2 C4 2.99 4 3.98 4 5 C7.96 5 11.92 5 16 5 C16 5.33 16 5.66 16 6 C9.565 6.495 9.565 6.495 3 7 C2.67 5.68 2.34 4.36 2 3 C1.34 3 0.68 3 0 3 C0 2.01 0 1.02 0 0 Z " fill="#EEF0F0" transform="translate(392,293)"/>
<path d="M0 0 C4.62 0 9.24 0 14 0 C14 0.33 14 0.66 14 1 C8.06 1.495 8.06 1.495 2 2 C2 2.66 2 3.32 2 4 C1.34 4 0.68 4 0 4 C0 4.66 0 5.32 0 6 C-0.66 6 -1.32 6 -2 6 C-2 4.68 -2 3.36 -2 2 C-1.34 2 -0.68 2 0 2 C0 1.34 0 0.68 0 0 Z " fill="#F5E5CB" transform="translate(218,284)"/>
<path d="M0 0 C-0.3125 1.875 -0.3125 1.875 -1 4 C-4 6 -4 6 -6.1875 5.625 C-6.785625 5.41875 -7.38375 5.2125 -8 5 C-3.375 0 -3.375 0 0 0 Z " fill="#E5EBE6" transform="translate(406,338)"/>
<path d="M0 0 C3.3 0 6.6 0 10 0 C9.67 0.99 9.34 1.98 9 3 C6.69 2.67 4.38 2.34 2 2 C1.67 2.99 1.34 3.98 1 5 C0.67 5 0.34 5 0 5 C0 3.35 0 1.7 0 0 Z " fill="#F61014" transform="translate(370,326)"/>
<path d="M0 0 C0.57234375 0.21527344 1.1446875 0.43054688 1.734375 0.65234375 C1.074375 0.65234375 0.414375 0.65234375 -0.265625 0.65234375 C-0.925625 1.97234375 -1.585625 3.29234375 -2.265625 4.65234375 C-4.93229167 4.65234375 -7.59895833 4.65234375 -10.265625 4.65234375 C-9.02618224 3.78292881 -7.77355441 2.93228918 -6.515625 2.08984375 C-5.81953125 1.61417969 -5.1234375 1.13851563 -4.40625 0.6484375 C-2.265625 -0.34765625 -2.265625 -0.34765625 0 0 Z " fill="#E22026" transform="translate(432.265625,296.34765625)"/>
<path d="M0 0 C-3.13188377 1.83117102 -5.44820595 2.2718057 -9.0625 2.25 C-9.91972656 2.25515625 -10.77695312 2.2603125 -11.66015625 2.265625 C-14 2 -14 2 -17 0 C-15.906875 0.020625 -14.81375 0.04125 -13.6875 0.0625 C-0.90753425 -0.15410959 -0.90753425 -0.15410959 0 0 Z " fill="#D93738" transform="translate(446,342)"/>
<path d="M0 0 C0.66 0 1.32 0 2 0 C3.66666667 3.33333333 5.33333333 6.66666667 7 10 C6.34 10 5.68 10 5 10 C5 9.34 5 8.68 5 8 C4.360625 7.79375 3.72125 7.5875 3.0625 7.375 C1 6 1 6 0.25 2.875 C0.1675 1.92625 0.085 0.9775 0 0 Z " fill="#E32632" transform="translate(371,330)"/>
<path d="M0 0 C1.0723969 3.68636433 1.04183175 6.97314114 0.9375 10.78125 C1.00005931 13.00210533 1.3812287 14.87297365 2 17 C1.34 17 0.68 17 0 17 C-1.35827701 14.28344597 -1.1323445 12.09210594 -1.125 9.0625 C-1.12757813 8.00160156 -1.13015625 6.94070313 -1.1328125 5.84765625 C-1 3 -1 3 0 0 Z " fill="#E4262B" transform="translate(415,311)"/>
<path d="M0 0 C0.66 0 1.32 0 2 0 C2 2.97 2 5.94 2 9 C0.68 9 -0.64 9 -2 9 C-1.34 6.03 -0.68 3.06 0 0 Z " fill="#F0F6F1" transform="translate(362,311)"/>
<path d="M0 0 C1.42944945 2.35438733 2.08661261 3.48032433 1.625 6.25 C1.41875 6.8275 1.2125 7.405 1 8 C-0.32 8 -1.64 8 -3 8 C-3 6.68 -3 5.36 -3 4 C-2.34 4 -1.68 4 -1 4 C-0.67 2.68 -0.34 1.36 0 0 Z " fill="#DCE6E1" transform="translate(173,318)"/>
<path d="M0 0 C0.33 0 0.66 0 1 0 C1.33 2.97 1.66 5.94 2 9 C0.68 9.33 -0.64 9.66 -2 10 C-2 7.69 -2 5.38 -2 3 C-1.34 3 -0.68 3 0 3 C0 2.01 0 1.02 0 0 Z " fill="#E7F2ED" transform="translate(412,317)"/>
<path d="M0 0 C2 1.8125 2 1.8125 4 4 C4 4.99 4 5.98 4 7 C3.34 7 2.68 7 2 7 C2 6.34 2 5.68 2 5 C1.34 5 0.68 5 0 5 C0 4.34 0 3.68 0 3 C-1.32 3.33 -2.64 3.66 -4 4 C-3.67 3.01 -3.34 2.02 -3 1 C-2.01 0.67 -1.02 0.34 0 0 Z " fill="#E3E0DF" transform="translate(416,331)"/>
<path d="M0 0 C3.63 0 7.26 0 11 0 C10.67 0.99 10.34 1.98 10 3 C6.7 2.67 3.4 2.34 0 2 C0 1.34 0 0.68 0 0 Z " fill="#F4F7F9" transform="translate(336,320)"/>
<path d="M0 0 C6.52307692 0.61538462 6.52307692 0.61538462 8.9375 2.5625 C9.288125 3.036875 9.63875 3.51125 10 4 C6.07103605 4 2.80106772 2.99700137 -1 2 C-0.67 1.34 -0.34 0.68 0 0 Z " fill="#272727" transform="translate(305,339)"/>
<path d="M0 0 C5.75 0.75 5.75 0.75 8 3 C3.38 3 -1.24 3 -6 3 C-6 2.67 -6 2.34 -6 2 C-4.02 1.67 -2.04 1.34 0 1 C0 0.67 0 0.34 0 0 Z " fill="#FAD197" transform="translate(292,306)"/>
<path d="M0 0 C0 0.66 0 1.32 0 2 C-0.99 2.33 -1.98 2.66 -3 3 C-3.33 3.99 -3.66 4.98 -4 6 C-4.66 6 -5.32 6 -6 6 C-6 4.02 -6 2.04 -6 0 C-3.50907189 -1.24546405 -2.58919267 -0.7767578 0 0 Z " fill="#F78E06" transform="translate(258,288)"/>
<path d="M0 0 C2.625 -0.1875 2.625 -0.1875 5 0 C3.71034824 1.37562854 2.37310707 2.70766393 1 4 C0.34 4 -0.32 4 -1 4 C-1 5.98 -1 7.96 -1 10 C-1.33 10 -1.66 10 -2 10 C-2.25 3.375 -2.25 3.375 0 0 Z " fill="#151515" transform="translate(302,341)"/>
<path d="M0 0 C3.68754757 0.49831724 5.60490662 1.10067643 8 4 C4.25 5.125 4.25 5.125 2 4 C2 3.34 2 2.68 2 2 C1.34 2 0.68 2 0 2 C0 1.34 0 0.68 0 0 Z " fill="#E51921" transform="translate(446,298)"/>
<path d="M0 0 C2.64 0 5.28 0 8 0 C3.375 4 3.375 4 0 4 C0 2.68 0 1.36 0 0 Z " fill="#D9E5E2" transform="translate(470,280)"/>
<path d="M0 0 C1.32 0 2.64 0 4 0 C4 1.32 4 2.64 4 4 C2.02 4 0.04 4 -2 4 C-2 3.34 -2 2.68 -2 2 C-1.34 2 -0.68 2 0 2 C0 1.34 0 0.68 0 0 Z " fill="#E5E4E8" transform="translate(178,330)"/>
<path d="M0 0 C4.95 0.99 4.95 0.99 10 2 C10 2.66 10 3.32 10 4 C8.02 4 6.04 4 4 4 C4 3.34 4 2.68 4 2 C2.68 2 1.36 2 0 2 C0 1.34 0 0.68 0 0 Z " fill="#F1FAF4" transform="translate(288,320)"/>
<path d="M0 0 C0.66 0 1.32 0 2 0 C1.42655063 2.86724686 1.1385485 3.8614515 -1 6 C-1.99 6 -2.98 6 -4 6 C-2.84826645 3.53199953 -1.95216435 1.95216435 0 0 Z " fill="#E0242E" transform="translate(494,282)"/>
<path d="M0 0 C3.45925163 1.2491742 6.14693203 2.67527795 9 5 C7.68 5.33 6.36 5.66 5 6 C3.35 4.02 1.7 2.04 0 0 Z " fill="#E12936" transform="translate(421,336)"/>
<path d="M0 0 C2.97 0 5.94 0 9 0 C8.67 0.99 8.34 1.98 8 3 C5.36 2.67 2.72 2.34 0 2 C0 1.34 0 0.68 0 0 Z " fill="#F6F8F7" transform="translate(336,337)"/>
<path d="M0 0 C3 3.75 3 3.75 3 6 C3.66 6.33 4.32 6.66 5 7 C3.68 7.33 2.36 7.66 1 8 C0.26919734 6.02253397 -0.39421747 4.01927511 -1 2 C-0.67 1.34 -0.34 0.68 0 0 Z " fill="#E72733" transform="translate(425,324)"/>
<path d="M0 0 C2.64 0 5.28 0 8 0 C8 0.33 8 0.66 8 1 C6.35 1.33 4.7 1.66 3 2 C3.99 2.66 4.98 3.32 6 4 C4.02 4 2.04 4 0 4 C0 2.68 0 1.36 0 0 Z " fill="#E39651" transform="translate(330,318)"/>
<path d="M0 0 C0.625 1.875 0.625 1.875 1 4 C0.34 4.66 -0.32 5.32 -1 6 C-2.32 6 -3.64 6 -5 6 C-5 5.01 -5 4.02 -5 3 C-3.68 3.33 -2.36 3.66 -1 4 C-0.67 2.68 -0.34 1.36 0 0 Z " fill="#E1E8DF" transform="translate(455,338)"/>
<path d="M0 0 C1.75098126 2.62647188 3.38731308 5.28775382 5 8 C3.35 7.67 1.7 7.34 0 7 C-1.04449911 3.86650268 -0.93423645 3.01031744 0 0 Z " fill="#F0D9D2" transform="translate(372,302)"/>
<path d="M0 0 C0.99 0 1.98 0 3 0 C3 1.32 3 2.64 3 4 C1.02 4 -0.96 4 -3 4 C-1.6875 2 -1.6875 2 0 0 Z " fill="#F8EEEC" transform="translate(367,300)"/>
<path d="M0 0 C0.66 0 1.32 0 2 0 C2 0.66 2 1.32 2 2 C2.66 2 3.32 2 4 2 C3.67 2.99 3.34 3.98 3 5 C1.35 5.33 -0.3 5.66 -2 6 C-2 5.34 -2 4.68 -2 4 C-1.34 4 -0.68 4 0 4 C0 2.68 0 1.36 0 0 Z " fill="#E6E6EE" transform="translate(188,282)"/>
<path d="M0 0 C2 2 2 2 2.125 5.125 C2.08375 6.07375 2.0425 7.0225 2 8 C1.01 8.33 0.02 8.66 -1 9 C-0.67 6.03 -0.34 3.06 0 0 Z " fill="#CC2B20" transform="translate(353,326)"/>
<path d="M0 0 C0.66 0 1.32 0 2 0 C1.67 1.65 1.34 3.3 1 5 C0.01 5.33 -0.98 5.66 -2 6 C-2 4.68 -2 3.36 -2 2 C-1.34 2 -0.68 2 0 2 C0 1.34 0 0.68 0 0 Z " fill="#E1EDE8" transform="translate(418,300)"/>
<path d="M0 0 C0.66 0 1.32 0 2 0 C2 1.32 2 2.64 2 4 C2.66 4 3.32 4 4 4 C3.67 4.99 3.34 5.98 3 7 C2.01 6.67 1.02 6.34 0 6 C0 4.02 0 2.04 0 0 Z " fill="#E8F3F2" transform="translate(384,296)"/>
<path d="M0 0 C1.32 0.33 2.64 0.66 4 1 C1.03 3.475 1.03 3.475 -2 6 C-2 4.68 -2 3.36 -2 2 C-1.34 2 -0.68 2 0 2 C0 1.34 0 0.68 0 0 Z " fill="#ECE0DF" transform="translate(376,282)"/>
</svg>
